{"glyphs":{"0":{"ha":517,"x_min":47,"x_max":469,"o":"m 47 785 q 65 874 47 835 q 111 940 82 913 q 178 983 140 968 q 258 997 217 997 q 338 983 300 997 q 406 940 376 968 q 452 874 435 913 q 469 785 469 835 l 469 204 q 452 115 469 154 q 406 49 435 76 q 338 6 376 21 q 258 -8 300 -8 q 178 6 217 -8 q 111 49 140 21 q 65 115 82 76 q 47 204 47 154 l 47 785 m 189 204 q 208 153 189 174 q 258 133 228 133 q 308 153 289 133 q 328 204 328 174 l 328 785 q 308 835 328 815 q 258 856 289 856 q 208 835 228 856 q 189 785 189 815 l 189 204 z "},"1":{"ha":517,"x_min":74,"x_max":357,"o":"m 215 839 l 74 735 l 74 885 l 215 989 l 357 989 l 357 0 l 215 0 l 215 839 z "},"2":{"ha":517,"x_min":46,"x_max":471,"o":"m 47 133 l 303 615 q 325 678 322 651 q 328 746 328 706 q 326 784 328 764 q 319 819 325 804 q 299 845 313 835 q 258 856 285 856 q 208 838 226 856 q 189 785 189 819 l 189 704 l 47 704 l 47 782 q 64 865 47 826 q 109 933 81 904 q 176 980 138 963 q 260 997 215 997 q 355 977 315 997 q 420 922 394 957 q 458 843 446 888 q 469 749 469 799 q 468 688 469 713 q 463 642 467 664 q 449 597 458 619 q 422 543 439 575 l 214 142 l 469 142 l 469 0 l 47 0 l 47 133 z "},"3":{"ha":517,"x_min":46,"x_max":471,"o":"m 215 572 q 303 588 279 572 q 328 658 328 603 l 328 786 q 309 836 328 817 q 258 856 290 856 q 205 832 221 856 q 189 786 189 808 l 189 706 l 47 706 l 47 788 q 64 869 47 831 q 110 936 81 908 q 178 981 139 964 q 261 997 217 997 q 358 974 319 997 q 415 928 396 951 q 440 894 429 911 q 456 853 450 876 q 466 798 463 831 q 469 718 469 765 q 467 635 469 667 q 456 581 465 603 q 430 544 447 560 q 382 511 413 529 q 433 472 415 490 q 458 430 450 454 q 468 372 467 406 q 469 285 469 338 q 467 204 469 236 q 461 151 465 172 q 450 114 457 129 q 432 82 443 99 q 364 17 406 43 q 257 -8 322 -8 q 186 3 224 -8 q 118 39 149 14 q 67 104 88 64 q 47 203 47 144 l 47 283 l 189 283 l 189 210 q 208 155 189 176 q 258 133 226 133 q 309 155 290 133 q 328 213 328 176 l 328 354 q 323 401 328 383 q 306 430 318 419 q 272 444 293 440 q 215 447 250 447 l 215 572 z "},"4":{"ha":517,"x_min":13,"x_max":504,"o":"m 294 147 l 13 147 l 13 281 l 217 989 l 367 989 l 154 281 l 294 281 l 294 563 l 436 563 l 436 281 l 504 281 l 504 147 l 436 147 l 436 0 l 294 0 l 294 147 z "},"5":{"ha":517,"x_min":47,"x_max":471,"o":"m 469 856 l 189 856 l 189 589 q 239 622 208 608 q 307 635 269 635 q 424 590 379 635 q 469 460 469 546 l 469 204 q 452 115 469 154 q 406 49 435 76 q 338 6 376 21 q 258 -8 300 -8 q 178 6 217 -8 q 111 49 140 21 q 65 115 82 76 q 47 204 47 154 l 47 246 l 189 246 l 189 210 q 209 153 189 174 q 261 133 229 133 q 310 153 293 133 q 328 207 328 172 l 328 439 q 309 489 328 468 q 261 510 290 510 q 231 503 243 510 q 210 489 218 497 q 197 471 201 481 l 189 456 l 64 456 l 64 989 l 469 989 l 469 856 z "},"6":{"ha":517,"x_min":46,"x_max":471,"o":"m 257 574 l 260 571 q 281 580 267 576 q 319 583 296 583 q 389 565 357 583 q 439 519 421 547 q 454 489 449 504 q 463 449 460 474 q 468 385 467 424 q 469 289 469 347 q 468 209 469 240 q 463 156 467 178 q 453 119 460 135 q 438 88 447 104 q 363 17 410 42 q 258 -8 317 -8 q 154 17 200 -8 q 81 88 108 43 q 63 119 69 104 q 53 156 57 135 q 49 209 50 178 q 47 289 47 240 q 49 365 47 335 q 53 416 50 394 q 61 455 56 438 q 74 492 67 472 l 260 989 l 418 989 l 257 574 m 328 388 q 307 439 328 419 q 258 458 286 458 q 210 439 231 458 q 189 388 189 419 l 189 204 q 210 153 189 172 q 258 133 231 133 q 307 153 286 133 q 328 204 328 172 l 328 388 z "},"7":{"ha":517,"x_min":47,"x_max":469,"o":"m 328 856 l 172 856 l 172 742 l 47 742 l 47 989 l 469 989 l 469 847 l 229 0 l 79 0 l 328 856 z "},"8":{"ha":517,"x_min":46,"x_max":471,"o":"m 328 786 q 307 835 328 815 q 258 856 286 856 q 210 835 231 856 q 189 786 189 815 l 189 642 q 210 592 189 613 q 258 572 231 572 q 307 592 286 572 q 328 642 328 613 l 328 786 m 47 731 q 50 799 47 771 q 59 849 53 828 q 75 886 65 869 q 99 921 85 903 q 168 977 126 957 q 258 997 210 997 q 349 977 307 997 q 418 921 390 957 q 442 886 432 903 q 458 849 451 869 q 467 799 464 828 q 469 731 469 771 q 468 656 469 686 q 460 601 467 625 q 438 559 453 578 q 399 519 424 540 q 438 481 424 500 q 460 435 453 461 q 468 370 467 408 q 469 276 469 332 q 467 201 469 231 q 461 149 465 171 q 449 111 457 126 q 431 79 442 96 q 364 17 407 43 q 258 -8 321 -8 q 153 17 196 -8 q 86 79 110 43 q 67 111 75 96 q 56 149 60 126 q 49 201 51 171 q 47 276 47 231 q 49 370 47 332 q 57 435 50 408 q 78 481 64 461 q 118 519 93 500 q 78 559 93 540 q 57 601 64 578 q 49 656 50 625 q 47 731 47 686 m 328 397 q 307 447 328 426 q 258 467 286 467 q 210 447 231 467 q 189 397 189 426 l 189 203 q 210 153 189 174 q 258 133 231 133 q 307 153 286 133 q 328 203 328 174 l 328 397 z "},"9":{"ha":517,"x_min":46,"x_max":471,"o":"m 260 415 l 257 418 q 235 409 250 413 q 197 406 221 406 q 128 424 160 406 q 78 469 96 442 q 63 499 68 483 q 53 540 57 515 q 49 603 50 565 q 47 700 47 642 q 49 780 47 749 q 53 833 50 811 q 63 869 57 854 q 79 901 69 885 q 153 972 107 947 q 258 997 200 997 q 363 972 317 997 q 436 901 408 946 q 453 869 446 885 q 463 833 460 854 q 468 780 467 811 q 469 700 469 749 q 468 624 469 654 q 463 573 467 594 q 455 534 460 551 q 443 497 450 517 l 257 0 l 99 0 l 260 415 m 189 601 q 210 550 189 569 q 258 531 231 531 q 307 550 286 531 q 328 601 328 569 l 328 785 q 307 836 328 817 q 258 856 286 856 q 210 836 231 856 q 189 785 189 817 l 189 601 z "}," ":{"ha":258,"x_min":0,"x_max":0,"o":""},"!":{"ha":333,"x_min":78,"x_max":256,"o":"m 78 989 l 256 989 l 201 244 l 132 244 l 78 989 m 96 142 l 238 142 l 238 0 l 96 0 l 96 142 z "},"\"":{"ha":386,"x_min":46,"x_max":340,"o":"m 46 989 l 157 989 l 157 744 l 46 744 l 46 989 m 229 989 l 340 989 l 340 744 l 229 744 l 229 989 z "},"#":{"ha":517,"x_min":8,"x_max":508,"o":"m 290 299 l 174 299 l 133 0 l 39 0 l 79 299 l 8 299 l 8 382 l 90 382 l 121 607 l 51 607 l 51 690 l 132 690 l 172 989 l 267 989 l 226 690 l 343 690 l 383 989 l 478 989 l 438 690 l 508 690 l 508 607 l 426 607 l 396 382 l 465 382 l 465 299 l 385 299 l 344 0 l 250 0 l 290 299 m 332 607 l 215 607 l 185 382 l 301 382 l 332 607 z "},"$":{"ha":517,"x_min":15,"x_max":503,"o":"m 224 856 q 176 807 188 842 q 164 728 164 772 q 174 652 164 678 q 224 607 183 626 l 224 856 m 294 133 q 349 182 339 144 q 360 281 360 219 q 358 339 360 315 q 348 378 356 363 q 328 403 340 393 q 294 422 315 414 l 294 133 m 224 -8 q 140 17 178 -3 q 74 67 101 36 q 31 138 46 97 q 15 224 15 178 l 15 279 l 157 279 l 157 229 q 172 169 157 197 q 224 133 188 142 l 224 453 l 176 472 q 53 572 85 510 q 22 726 22 633 q 72 908 22 832 q 224 997 122 983 l 224 1101 l 294 1101 l 294 997 q 380 971 342 992 q 445 919 418 950 q 487 850 472 888 q 501 774 501 813 l 501 704 l 360 704 l 360 736 q 345 813 360 781 q 294 856 331 844 l 294 576 l 353 553 q 429 510 400 535 q 474 453 458 486 q 496 378 490 421 q 501 282 501 336 q 491 172 501 222 q 456 83 481 121 q 392 21 432 44 q 294 -8 353 -3 l 294 -125 l 224 -125 l 224 -8 z "},"%":{"ha":489,"x_min":13,"x_max":476,"o":"m 106 781 q 111 776 106 781 q 131 771 117 771 q 155 781 144 771 q 165 807 165 792 l 165 878 q 155 903 165 893 q 131 914 144 914 q 106 903 117 914 q 96 878 96 893 l 96 807 q 106 781 96 792 m 217 717 q 201 702 217 717 q 131 688 185 688 q 44 717 76 688 q 13 793 13 746 l 13 883 q 44 967 13 936 q 131 997 76 997 q 217 967 185 997 q 249 883 249 936 l 249 793 q 217 717 249 746 m 324 111 q 334 85 324 96 q 358 75 344 75 q 383 85 372 75 q 393 111 393 96 l 393 182 q 383 208 393 197 q 358 218 372 218 q 334 208 344 218 q 324 182 324 197 l 324 111 m 444 21 q 428 6 444 21 q 358 -8 413 -8 q 272 21 304 -8 q 240 97 240 50 l 240 188 q 272 271 240 240 q 358 301 304 301 q 444 271 413 301 q 476 188 476 240 l 476 97 q 444 21 476 50 m 368 989 l 460 989 l 121 0 l 29 0 l 368 989 z "},"&":{"ha":668,"x_min":50,"x_max":632,"o":"m 443 75 q 356 13 401 33 q 254 -8 311 -8 q 175 8 213 -8 q 110 55 138 25 q 66 127 82 85 q 50 221 50 169 q 89 364 50 303 q 186 478 128 425 q 124 587 149 531 q 100 706 100 643 q 113 780 100 744 q 149 841 125 815 q 208 882 172 867 q 293 897 244 897 q 374 883 339 897 q 432 844 408 868 q 468 787 456 819 q 481 718 481 754 q 438 585 481 649 q 336 469 394 522 q 397 372 363 429 q 467 263 431 315 l 543 367 l 631 306 l 525 169 l 632 0 l 490 0 l 443 75 m 175 228 q 205 140 175 176 q 281 103 235 103 q 342 123 313 103 q 386 163 371 143 l 250 379 q 197 310 218 347 q 175 228 175 274 m 244 760 q 235 748 244 760 q 225 703 225 735 q 240 634 225 671 q 279 560 256 597 l 307 589 q 335 624 322 604 q 356 666 347 643 q 364 715 364 689 q 346 764 364 742 q 296 786 328 786 q 244 760 264 786 z "},"'":{"ha":258,"x_min":74,"x_max":185,"o":"m 74 989 l 185 989 l 185 744 l 74 744 l 74 989 z "},"(":{"ha":308,"x_min":69,"x_max":282,"o":"m 282 989 q 226 692 242 846 q 211 386 211 539 q 230 114 211 244 q 282 -139 249 -17 l 235 -139 q 162 -8 193 -79 q 110 136 131 63 q 80 284 90 210 q 69 425 69 358 q 81 572 69 496 q 113 721 92 647 q 165 863 135 794 q 235 989 196 931 l 282 989 z "},")":{"ha":308,"x_min":26,"x_max":239,"o":"m 26 -139 q 82 158 67 4 q 97 464 97 311 q 78 736 97 606 q 26 989 60 867 l 74 989 q 147 858 115 928 q 198 714 178 788 q 228 566 218 640 q 239 425 239 492 q 228 278 239 354 q 195 129 217 203 q 143 -12 174 56 q 74 -139 113 -81 l 26 -139 z "},"*":{"ha":514,"x_min":43,"x_max":471,"o":"m 82 911 l 218 828 l 213 989 l 301 989 l 296 828 l 432 911 l 471 839 l 332 761 l 471 685 l 432 611 l 296 694 l 301 533 l 213 533 l 218 694 l 82 611 l 43 685 l 182 761 l 43 839 l 82 911 z "},"+":{"ha":833,"x_min":65,"x_max":768,"o":"m 361 703 l 472 703 l 472 407 l 768 407 l 768 296 l 472 296 l 472 0 l 361 0 l 361 296 l 65 296 l 65 407 l 361 407 l 361 703 z "},",":{"ha":258,"x_min":58,"x_max":200,"o":"m 58 142 l 200 142 l 200 0 l 58 -103 l 58 142 z "},"-":{"ha":540,"x_min":61,"x_max":479,"o":"m 61 456 l 479 456 l 479 314 l 61 314 l 61 456 z "},".":{"ha":258,"x_min":58,"x_max":200,"o":"m 58 142 l 200 142 l 200 0 l 58 0 l 58 142 z "},"/":{"ha":308,"x_min":7,"x_max":301,"o":"m 190 997 l 301 997 l 118 -8 l 7 -8 l 190 997 z "},":":{"ha":258,"x_min":58,"x_max":200,"o":"m 58 142 l 200 142 l 200 0 l 58 0 l 58 142 m 58 457 l 200 457 l 200 315 l 58 315 l 58 457 z "},";":{"ha":258,"x_min":58,"x_max":200,"o":"m 58 142 l 200 142 l 200 0 l 58 -103 l 58 142 m 58 457 l 200 457 l 200 315 l 58 315 l 58 457 z "},"<":{"ha":833,"x_min":65,"x_max":768,"o":"m 768 603 l 217 351 l 768 100 l 768 -11 l 65 310 l 65 393 l 768 714 l 768 603 z "},"=":{"ha":833,"x_min":65,"x_max":768,"o":"m 65 546 l 768 546 l 768 435 l 65 435 l 65 546 m 65 268 l 768 268 l 768 157 l 65 157 l 65 268 z "},">":{"ha":833,"x_min":65,"x_max":768,"o":"m 65 100 l 617 351 l 65 603 l 65 714 l 768 393 l 768 310 l 65 -11 l 65 100 z "},"?":{"ha":514,"x_min":44,"x_max":469,"o":"m 44 786 q 61 868 44 829 q 107 935 78 907 q 175 981 136 964 q 258 997 214 997 q 352 976 310 997 q 422 918 394 956 q 445 882 436 899 q 460 847 454 865 q 467 804 465 828 q 469 749 469 781 q 469 688 469 713 q 465 646 468 664 q 458 615 463 628 q 447 590 454 601 l 351 426 q 335 392 342 410 q 328 356 328 375 l 328 244 l 186 244 l 186 374 q 196 432 186 404 q 221 486 206 460 l 310 631 q 324 669 321 649 q 328 711 328 690 l 328 785 q 308 835 328 814 q 258 856 288 856 q 210 838 233 856 q 186 785 186 819 l 186 704 l 44 704 l 44 786 m 186 142 l 328 142 l 328 0 l 186 0 l 186 142 z "},"@":{"ha":1111,"x_min":75,"x_max":1082,"o":"m 713 569 q 686 651 713 618 q 610 685 660 685 q 525 659 564 685 q 458 593 486 633 q 413 505 429 553 q 396 414 396 457 q 427 324 396 356 q 511 293 458 293 q 587 321 550 293 q 651 390 624 349 q 696 479 679 431 q 713 569 713 528 m 767 379 q 756 343 760 360 q 753 317 753 326 q 760 288 753 299 q 785 276 767 276 q 851 304 818 276 q 912 376 885 332 q 956 472 939 419 q 974 575 974 525 q 943 708 974 647 q 861 813 913 769 q 742 881 810 857 q 601 906 675 906 q 438 871 514 906 q 304 779 361 836 q 215 647 247 722 q 182 490 182 571 q 215 331 182 406 q 305 202 247 257 q 440 115 363 147 q 608 83 518 83 q 708 95 658 83 q 803 126 758 107 q 884 173 847 146 q 946 229 921 200 l 1053 229 q 970 129 1019 174 q 862 54 921 85 q 735 8 803 24 q 597 -8 668 -8 q 394 30 489 -8 q 228 135 299 68 q 116 296 157 203 q 75 497 75 389 q 117 692 75 601 q 230 851 158 783 q 397 958 301 919 q 600 997 493 997 q 785 967 697 997 q 938 881 872 936 q 1042 749 1004 825 q 1081 582 1081 674 q 1048 423 1081 494 q 967 301 1015 351 q 863 222 918 250 q 764 193 808 193 q 689 215 717 193 q 656 281 661 236 l 653 281 q 622 249 638 264 q 585 221 606 233 q 540 201 565 208 q 483 193 515 193 q 402 210 439 193 q 339 256 365 226 q 299 323 313 285 q 285 404 285 361 q 308 540 285 472 q 374 663 332 608 q 476 751 417 717 q 610 785 536 785 q 703 759 658 785 q 769 676 749 733 l 772 676 l 800 761 l 888 761 l 767 379 z "},"A":{"ha":565,"x_min":3,"x_max":563,"o":"m 283 704 l 281 704 l 211 346 l 353 346 l 283 704 m 224 989 l 342 989 l 563 0 l 421 0 l 379 213 l 186 213 l 144 0 l 3 0 l 224 989 z "},"B":{"ha":592,"x_min":67,"x_max":525,"o":"m 67 989 l 274 989 q 390 968 342 989 q 468 913 438 947 q 512 833 499 878 q 525 739 525 788 l 525 703 q 519 635 525 663 q 500 586 513 607 q 469 549 488 565 q 428 519 451 533 q 501 449 478 496 q 525 325 525 403 l 525 269 q 462 69 525 139 q 260 0 399 0 l 67 0 l 67 989 m 208 142 l 269 142 q 337 154 313 142 q 374 189 361 167 q 389 242 386 211 q 392 308 392 272 q 388 374 392 346 q 370 420 383 401 q 333 449 357 439 q 271 458 310 458 l 208 458 l 208 142 m 208 583 l 272 583 q 367 619 343 583 q 392 722 392 654 q 365 822 392 789 q 267 856 338 856 l 208 856 l 208 583 z "},"C":{"ha":565,"x_min":57,"x_max":517,"o":"m 517 221 q 499 133 517 175 q 451 60 482 92 q 380 10 421 29 q 292 -8 339 -8 q 210 3 251 -8 q 135 41 168 14 q 80 113 101 68 q 58 225 58 157 l 58 769 q 75 860 58 818 q 122 932 92 901 q 195 980 153 963 q 289 997 238 997 q 379 980 338 997 q 451 931 421 963 q 499 856 482 900 q 517 761 517 813 l 517 706 l 375 706 l 375 753 q 351 825 375 794 q 288 856 328 856 q 217 823 235 856 q 200 740 200 790 l 200 235 q 219 163 200 192 q 286 133 238 133 q 316 138 300 133 q 345 154 332 143 q 367 185 358 165 q 375 233 375 204 l 375 282 l 517 282 l 517 221 z "},"D":{"ha":592,"x_min":67,"x_max":526,"o":"m 67 989 l 276 989 q 461 922 397 989 q 525 733 525 854 l 525 271 q 458 66 525 132 q 264 0 390 0 l 67 0 l 67 989 m 208 133 l 274 133 q 358 163 333 133 q 383 257 383 193 l 383 733 q 360 824 383 792 q 274 856 336 856 l 208 856 l 208 133 z "},"E":{"ha":514,"x_min":67,"x_max":489,"o":"m 67 989 l 489 989 l 489 856 l 208 856 l 208 565 l 453 565 l 453 432 l 208 432 l 208 142 l 489 142 l 489 0 l 67 0 l 67 989 z "},"F":{"ha":514,"x_min":67,"x_max":489,"o":"m 67 989 l 489 989 l 489 856 l 208 856 l 208 556 l 453 556 l 453 422 l 208 422 l 208 0 l 67 0 l 67 989 z "},"G":{"ha":592,"x_min":58,"x_max":533,"o":"m 58 756 q 79 861 58 815 q 134 937 100 907 q 210 982 168 967 q 296 997 253 997 q 381 982 339 997 q 458 937 424 967 q 513 861 492 907 q 533 756 533 815 l 533 706 l 392 706 l 392 756 q 363 831 392 807 q 296 856 335 856 q 228 831 257 856 q 200 756 200 807 l 200 233 q 228 158 200 182 q 296 133 257 133 q 363 158 335 133 q 392 233 392 182 l 392 419 l 279 419 l 279 544 l 533 544 l 533 233 q 513 127 533 172 q 458 52 492 82 q 381 7 424 22 q 296 -8 339 -8 q 210 7 253 -8 q 134 52 168 22 q 79 127 100 82 q 58 233 58 172 l 58 756 z "},"H":{"ha":592,"x_min":67,"x_max":525,"o":"m 67 989 l 208 989 l 208 565 l 383 565 l 383 989 l 525 989 l 525 0 l 383 0 l 383 440 l 208 440 l 208 0 l 67 0 l 67 989 z "},"I":{"ha":283,"x_min":71,"x_max":213,"o":"m 71 989 l 213 989 l 213 0 l 71 0 l 71 989 z "},"J":{"ha":463,"x_min":-32,"x_max":396,"o":"m 396 233 q 379 141 396 185 q 331 64 363 97 q 256 11 300 31 q 154 -8 211 -8 q 41 22 86 -8 q -31 81 -4 51 l 81 169 q 116 144 96 154 q 158 133 136 133 q 188 138 171 133 q 219 156 204 143 q 244 192 233 169 q 254 253 254 215 l 254 989 l 396 989 l 396 233 z "},"K":{"ha":592,"x_min":67,"x_max":596,"o":"m 67 989 l 208 989 l 208 538 l 211 538 l 418 989 l 560 989 l 367 593 l 596 0 l 446 0 l 285 439 l 208 296 l 208 0 l 67 0 l 67 989 z "},"L":{"ha":514,"x_min":67,"x_max":489,"o":"m 67 989 l 208 989 l 208 142 l 489 142 l 489 0 l 67 0 l 67 989 z "},"M":{"ha":772,"x_min":67,"x_max":706,"o":"m 67 989 l 203 989 l 385 465 l 388 465 l 568 989 l 706 989 l 706 0 l 564 0 l 564 601 l 561 601 l 421 176 l 350 176 l 211 601 l 208 601 l 208 0 l 67 0 l 67 989 z "},"N":{"ha":617,"x_min":61,"x_max":556,"o":"m 61 989 l 197 989 l 411 393 l 414 393 l 414 989 l 556 989 l 556 0 l 422 0 l 206 594 l 203 594 l 203 0 l 61 0 l 61 989 z "},"O":{"ha":592,"x_min":58,"x_max":533,"o":"m 58 756 q 79 861 58 815 q 134 937 100 907 q 210 982 168 967 q 296 997 253 997 q 381 982 339 997 q 458 937 424 967 q 513 861 492 907 q 533 756 533 815 l 533 233 q 513 127 533 172 q 458 52 492 82 q 381 7 424 22 q 296 -8 339 -8 q 210 7 253 -8 q 134 52 168 22 q 79 127 100 82 q 58 233 58 172 l 58 756 m 200 233 q 228 158 200 182 q 296 133 257 133 q 363 158 335 133 q 392 233 392 182 l 392 756 q 363 831 392 807 q 296 856 335 856 q 228 831 257 856 q 200 756 200 807 l 200 233 z "},"P":{"ha":565,"x_min":67,"x_max":528,"o":"m 67 989 l 279 989 q 382 974 338 989 q 463 919 426 958 q 513 828 499 881 q 526 688 526 776 q 519 576 526 622 q 486 489 511 529 q 408 413 457 440 q 281 386 360 386 l 208 386 l 208 0 l 67 0 l 67 989 m 208 519 l 276 519 q 343 532 319 519 q 378 566 367 544 q 391 618 389 588 q 393 686 393 649 q 391 752 393 721 q 378 806 389 783 q 346 842 368 829 q 282 856 324 856 l 208 856 l 208 519 z "},"Q":{"ha":592,"x_min":58,"x_max":600,"o":"m 200 233 q 228 158 200 182 q 296 133 257 133 q 326 139 314 133 l 263 190 l 335 276 l 392 231 l 392 233 l 392 756 q 363 831 392 807 q 296 856 335 856 q 228 831 257 856 q 200 756 200 807 l 200 233 m 58 756 q 79 861 58 815 q 134 937 100 907 q 210 982 168 967 q 296 997 253 997 q 381 982 339 997 q 458 937 424 967 q 513 861 492 907 q 533 756 533 815 l 533 233 q 513 132 533 175 l 600 61 l 528 -25 l 444 43 q 374 4 413 17 q 296 -8 336 -8 q 210 7 253 -8 q 134 52 168 22 q 79 127 100 82 q 58 233 58 172 l 58 756 z "},"R":{"ha":592,"x_min":65,"x_max":575,"o":"m 208 547 l 289 547 q 349 558 326 547 q 383 588 371 568 q 399 635 394 607 q 403 701 403 664 q 399 767 403 739 q 381 816 394 796 q 344 846 368 836 q 282 856 321 856 l 208 856 l 208 547 m 67 989 l 294 989 q 544 699 544 989 q 517 551 544 613 q 422 451 490 489 l 575 0 l 425 0 l 293 422 l 208 422 l 208 0 l 67 0 l 67 989 z "},"S":{"ha":564,"x_min":39,"x_max":526,"o":"m 525 704 l 383 704 l 383 736 q 360 820 383 785 q 283 856 338 856 q 235 844 254 856 q 206 816 217 833 q 192 776 196 799 q 188 728 188 753 q 190 678 188 699 q 200 644 192 658 q 224 618 208 629 q 268 596 240 607 l 376 553 q 453 510 424 535 q 498 453 482 486 q 519 378 514 421 q 525 282 525 336 q 513 166 525 219 q 472 74 500 113 q 396 14 443 36 q 281 -8 349 -8 q 185 10 229 -8 q 108 59 140 28 q 58 133 76 90 q 39 226 39 176 l 39 279 l 181 279 l 181 235 q 203 165 181 196 q 281 133 226 133 q 337 144 317 133 q 367 173 357 154 q 381 219 378 192 q 383 281 383 247 q 381 344 383 319 q 369 385 378 369 q 344 410 360 400 q 301 431 328 419 l 200 472 q 77 572 108 510 q 46 726 46 633 q 61 832 46 782 q 106 918 76 882 q 182 976 136 954 q 289 997 228 997 q 385 978 342 997 q 460 926 429 958 q 508 855 492 894 q 525 774 525 815 l 525 704 z "},"T":{"ha":461,"x_min":-4,"x_max":465,"o":"m 160 856 l -4 856 l -4 989 l 465 989 l 465 856 l 301 856 l 301 0 l 160 0 l 160 856 z "},"U":{"ha":592,"x_min":65,"x_max":525,"o":"m 525 222 q 507 132 525 174 q 458 59 489 90 q 385 10 426 28 q 296 -8 343 -8 q 207 10 249 -8 q 134 59 165 28 q 85 132 103 90 q 67 222 67 174 l 67 989 l 208 989 l 208 236 q 233 158 208 183 q 296 133 258 133 q 358 158 333 133 q 383 236 383 183 l 383 989 l 525 989 l 525 222 z "},"V":{"ha":565,"x_min":18,"x_max":547,"o":"m 344 0 l 219 0 l 18 989 l 168 989 l 281 299 l 283 299 l 397 989 l 547 989 l 344 0 z "},"W":{"ha":824,"x_min":22,"x_max":801,"o":"m 654 0 l 521 0 l 413 642 l 410 642 l 303 0 l 169 0 l 22 989 l 172 989 l 243 361 l 246 361 l 357 989 l 465 989 l 581 346 l 583 346 l 651 989 l 801 989 l 654 0 z "},"X":{"ha":540,"x_min":-3,"x_max":543,"o":"m 197 518 l 13 989 l 163 989 l 269 696 l 378 989 l 528 989 l 339 518 l 543 0 l 393 0 l 269 333 l 147 0 l -3 0 l 197 518 z "},"Y":{"ha":539,"x_min":4,"x_max":535,"o":"m 199 418 l 4 989 l 154 989 l 268 596 l 271 596 l 385 989 l 535 989 l 340 418 l 340 0 l 199 0 l 199 418 z "},"Z":{"ha":463,"x_min":21,"x_max":442,"o":"m 21 125 l 288 856 l 35 856 l 35 989 l 442 989 l 442 876 l 169 133 l 442 133 l 442 0 l 21 0 l 21 125 z "},"[":{"ha":308,"x_min":81,"x_max":297,"o":"m 297 906 l 206 906 l 206 -56 l 297 -56 l 297 -139 l 81 -139 l 81 989 l 297 989 l 297 906 z "},"\\":{"ha":308,"x_min":7,"x_max":301,"o":"m 301 -8 l 190 -8 l 7 997 l 118 997 l 301 -8 z "},"]":{"ha":308,"x_min":11,"x_max":228,"o":"m 11 -56 l 103 -56 l 103 906 l 11 906 l 11 989 l 228 989 l 228 -139 l 11 -139 l 11 -56 z "},"^":{"ha":833,"x_min":69,"x_max":764,"o":"m 371 989 l 463 989 l 764 393 l 653 393 l 417 864 l 181 393 l 69 393 l 371 989 z "},"_":{"ha":694,"x_min":0,"x_max":694,"o":"m 0 -104 l 694 -104 l 694 -174 l 0 -174 l 0 -104 z "},"`":{"ha":258,"x_min":-56,"x_max":219,"o":"m 219 797 l 128 797 l -56 993 l 94 993 l 219 797 z "},"a":{"ha":514,"x_min":35,"x_max":468,"o":"m 326 72 l 324 72 q 267 13 296 33 q 188 -8 239 -8 q 136 -1 163 -8 q 87 27 110 7 q 49 84 64 47 q 35 179 35 121 q 44 284 35 239 q 80 359 54 329 q 149 403 106 389 q 258 418 192 418 q 289 417 274 418 q 326 414 304 415 l 326 488 q 311 547 326 524 q 256 571 296 571 q 205 553 228 571 q 175 500 182 535 l 38 500 q 101 653 44 596 q 168 697 129 681 q 256 713 207 713 q 339 699 300 713 q 406 657 378 685 q 451 588 435 629 q 468 490 468 546 l 468 0 l 326 0 l 326 72 m 326 303 q 288 307 303 307 q 209 285 242 307 q 176 207 176 264 q 196 142 176 167 q 250 117 215 117 q 306 140 286 117 q 326 207 326 164 l 326 303 z "},"b":{"ha":540,"x_min":58,"x_max":482,"o":"m 58 989 l 200 989 l 200 640 l 203 640 q 259 694 226 675 q 333 713 292 713 q 413 694 385 713 q 460 649 442 676 q 478 590 474 626 q 482 478 482 554 l 482 210 q 476 117 482 151 q 458 58 471 82 q 335 -8 422 -8 q 254 13 282 -8 q 200 64 226 33 l 200 0 l 58 0 l 58 989 m 340 488 q 326 546 340 521 q 271 571 311 571 q 220 549 240 571 q 200 494 200 528 l 200 221 q 219 158 200 182 q 271 133 239 133 q 324 160 307 133 q 340 229 340 186 l 340 488 z "},"c":{"ha":514,"x_min":65,"x_max":489,"o":"m 208 203 q 227 151 208 169 q 278 133 246 133 q 331 157 318 133 q 347 204 344 181 l 489 204 q 474 121 489 160 q 432 54 460 82 q 365 8 404 25 q 278 -8 326 -8 q 165 19 213 -8 q 93 93 118 47 q 72 157 78 121 q 67 236 67 193 l 67 468 q 72 547 67 511 q 93 611 78 583 q 165 685 118 657 q 278 713 213 713 q 366 696 326 713 q 433 649 406 679 q 474 578 460 619 q 489 488 489 536 l 347 488 q 328 551 347 531 q 278 571 310 571 q 227 551 246 571 q 208 490 208 531 l 208 203 z "},"d":{"ha":540,"x_min":57,"x_max":483,"o":"m 200 229 q 217 160 200 186 q 269 133 233 133 q 321 158 301 133 q 340 221 340 182 l 340 494 q 320 549 340 528 q 269 571 300 571 q 215 546 229 571 q 200 488 200 521 l 200 229 m 340 64 l 314 36 q 286 13 301 22 q 251 -3 271 3 q 206 -8 232 -8 q 82 58 118 -8 q 64 117 69 82 q 58 210 58 151 l 58 478 q 63 590 58 554 q 81 649 67 626 q 127 694 99 676 q 207 713 156 713 q 281 694 249 713 q 338 640 314 675 l 340 640 l 340 989 l 482 989 l 482 0 l 340 0 l 340 64 z "},"e":{"ha":514,"x_min":44,"x_max":468,"o":"m 188 299 l 188 203 q 206 151 188 169 q 257 133 225 133 q 310 157 297 133 q 326 204 324 181 l 468 204 q 453 121 468 160 q 411 54 439 82 q 344 8 383 25 q 257 -8 306 -8 q 144 19 192 -8 q 72 93 97 47 q 51 157 57 121 q 46 236 46 193 l 46 468 q 51 547 46 511 q 72 611 57 583 q 144 685 97 657 q 257 713 192 713 q 345 696 306 713 q 412 649 385 679 q 453 579 439 619 q 468 493 468 539 l 468 299 l 188 299 m 188 410 l 326 410 l 326 490 q 308 551 326 531 q 257 571 289 571 q 206 551 225 571 q 188 490 188 531 l 188 410 z "},"f":{"ha":308,"x_min":7,"x_max":324,"o":"m 76 593 l 7 593 l 7 704 l 76 704 l 76 800 q 92 887 76 851 q 133 945 107 922 q 191 978 158 968 q 258 989 224 989 l 324 989 l 324 856 l 260 856 q 218 807 218 856 l 218 704 l 324 704 l 324 593 l 218 593 l 218 0 l 76 0 l 76 593 z "},"g":{"ha":540,"x_min":57,"x_max":482,"o":"m 200 -82 q 220 -129 201 -107 q 275 -151 239 -151 q 325 -130 310 -151 q 340 -75 340 -108 l 340 64 l 338 64 q 281 10 314 29 q 206 -8 249 -8 q 82 58 118 -8 q 64 117 69 82 q 58 210 58 151 l 58 478 q 63 590 58 554 q 81 649 67 626 q 127 694 99 676 q 207 713 156 713 q 252 707 233 713 q 286 692 271 701 q 314 669 301 682 l 340 640 l 340 704 l 482 704 l 482 -86 q 470 -159 482 -122 q 432 -226 458 -196 q 365 -274 406 -256 q 269 -293 325 -293 q 203 -283 238 -293 q 138 -248 168 -272 q 87 -183 108 -224 q 58 -82 65 -143 l 200 -82 m 200 217 q 215 158 200 183 q 269 133 229 133 q 320 155 300 133 q 340 210 340 176 l 340 483 q 321 547 340 522 q 269 571 301 571 q 217 544 233 571 q 200 475 200 518 l 200 217 z "},"h":{"ha":540,"x_min":58,"x_max":482,"o":"m 58 989 l 200 989 l 200 636 l 203 636 q 256 691 225 669 q 336 713 288 713 q 389 703 363 713 q 436 674 415 694 q 469 620 457 653 q 482 540 482 588 l 482 0 l 340 0 l 340 488 q 322 549 340 526 q 271 571 304 571 q 215 546 231 571 q 200 474 200 521 l 200 0 l 58 0 l 58 989 z "},"i":{"ha":258,"x_min":58,"x_max":200,"o":"m 58 704 l 200 704 l 200 0 l 58 0 l 58 704 m 58 989 l 200 989 l 200 847 l 58 847 l 58 989 z "},"j":{"ha":258,"x_min":-31,"x_max":200,"o":"m 58 704 l 200 704 l 200 -75 q 135 -232 200 -179 q -31 -285 69 -285 l -31 -151 q 12 -146 -6 -151 q 40 -126 29 -140 q 54 -86 50 -111 q 58 -22 58 -61 l 58 704 m 58 989 l 200 989 l 200 847 l 58 847 l 58 989 z "},"k":{"ha":540,"x_min":58,"x_max":550,"o":"m 58 989 l 200 989 l 200 397 l 203 397 l 374 704 l 515 704 l 347 418 l 550 0 l 396 0 l 268 304 l 200 197 l 200 0 l 58 0 l 58 989 z "},"l":{"ha":258,"x_min":50,"x_max":261,"o":"m 50 989 l 192 989 l 192 199 q 206 144 192 158 q 261 125 221 129 l 261 -8 q 173 -1 213 -8 q 106 28 133 7 q 65 89 79 50 q 50 189 50 128 l 50 989 z "},"m":{"ha":822,"x_min":58,"x_max":764,"o":"m 58 704 l 200 704 l 200 636 l 203 636 q 256 691 225 669 q 336 713 288 713 q 413 690 382 713 q 463 642 443 668 q 521 692 489 671 q 610 713 553 713 q 664 703 636 713 q 714 674 692 694 q 750 620 736 653 q 764 540 764 588 l 764 0 l 622 0 l 622 488 q 604 549 622 526 q 553 571 586 571 q 497 546 513 571 q 482 474 482 521 l 482 0 l 340 0 l 340 488 q 322 549 340 526 q 271 571 304 571 q 215 546 231 571 q 200 474 200 521 l 200 0 l 58 0 l 58 704 z "},"n":{"ha":540,"x_min":58,"x_max":482,"o":"m 58 704 l 200 704 l 200 636 l 203 636 q 256 691 225 669 q 336 713 288 713 q 389 703 363 713 q 436 674 415 694 q 469 620 457 653 q 482 540 482 588 l 482 0 l 340 0 l 340 488 q 322 549 340 526 q 271 571 304 571 q 215 546 231 571 q 200 474 200 521 l 200 0 l 58 0 l 58 704 z "},"o":{"ha":514,"x_min":44,"x_max":469,"o":"m 46 468 q 51 547 46 511 q 72 611 57 583 q 144 685 97 657 q 257 713 192 713 q 369 685 322 713 q 442 611 417 657 q 463 547 457 583 q 468 468 468 511 l 468 236 q 463 157 468 193 q 442 93 457 121 q 369 19 417 47 q 257 -8 322 -8 q 144 19 192 -8 q 72 93 97 47 q 51 157 57 121 q 46 236 46 193 l 46 468 m 188 214 q 206 153 188 174 q 257 133 225 133 q 308 153 289 133 q 326 214 326 174 l 326 490 q 308 551 326 531 q 257 571 289 571 q 206 551 225 571 q 188 490 188 531 l 188 214 z "},"p":{"ha":540,"x_min":58,"x_max":483,"o":"m 58 704 l 200 704 l 200 640 q 254 692 226 671 q 335 713 282 713 q 458 646 422 713 q 476 588 471 622 q 482 494 482 553 l 482 226 q 478 114 482 150 q 460 56 474 78 q 413 10 442 28 q 333 -8 385 -8 q 259 10 292 -8 q 203 64 226 29 l 200 64 l 200 -285 l 58 -285 l 58 704 m 340 475 q 324 544 340 518 q 271 571 307 571 q 219 547 239 571 q 200 483 200 522 l 200 210 q 220 155 200 176 q 271 133 240 133 q 326 158 311 133 q 340 217 340 183 l 340 475 z "},"q":{"ha":540,"x_min":58,"x_max":482,"o":"m 340 64 l 338 64 q 281 10 314 29 q 207 -8 249 -8 q 127 10 156 -8 q 81 56 99 28 q 63 114 67 78 q 58 226 58 150 l 58 494 q 64 588 58 553 q 82 646 69 622 q 206 713 118 713 q 251 707 232 713 q 286 692 271 701 q 314 669 301 682 l 340 640 l 340 704 l 482 704 l 482 -285 l 340 -285 l 340 64 m 200 217 q 215 158 200 183 q 269 133 229 133 q 320 155 300 133 q 340 210 340 176 l 340 483 q 321 547 340 522 q 269 571 301 571 q 217 544 233 571 q 200 475 200 518 l 200 217 z "},"r":{"ha":386,"x_min":58,"x_max":388,"o":"m 58 704 l 200 704 l 200 629 q 285 690 243 668 q 388 713 326 713 l 388 563 q 344 571 367 571 q 297 563 322 571 q 249 538 271 556 q 214 490 228 519 q 200 418 200 461 l 200 0 l 58 0 l 58 704 z "},"s":{"ha":489,"x_min":32,"x_max":456,"o":"m 315 507 q 292 561 314 543 q 243 579 271 579 q 192 558 210 579 q 174 508 174 536 q 183 470 174 489 q 233 436 193 451 l 317 403 q 426 319 396 372 q 456 204 456 267 q 440 122 456 160 q 396 54 424 83 q 329 8 368 25 q 244 -8 290 -8 q 165 6 203 -8 q 99 46 128 19 q 53 112 71 72 q 33 204 35 151 l 167 204 q 187 150 171 175 q 243 125 203 125 q 298 145 274 125 q 322 201 322 165 q 307 251 322 231 q 251 288 292 272 l 183 313 q 78 387 117 338 q 40 507 40 436 q 57 590 40 551 q 102 655 74 628 q 168 697 131 682 q 249 713 206 713 q 328 697 292 713 q 392 653 365 681 q 433 588 418 626 q 449 507 449 550 l 315 507 z "},"t":{"ha":283,"x_min":-12,"x_max":288,"o":"m 58 918 l 200 918 l 200 704 l 288 704 l 288 593 l 200 593 l 200 203 q 205 164 200 178 q 220 143 210 150 q 247 135 231 136 q 288 133 264 133 l 288 0 l 229 0 q 148 15 181 0 q 96 54 115 31 q 67 108 76 78 q 58 165 58 138 l 58 593 l -12 593 l -12 704 l 58 704 l 58 918 z "},"u":{"ha":540,"x_min":58,"x_max":482,"o":"m 482 0 l 340 0 l 340 68 l 338 68 q 284 13 315 35 q 204 -8 253 -8 q 151 1 178 -8 q 104 31 125 10 q 71 84 83 51 q 58 164 58 117 l 58 704 l 200 704 l 200 217 q 218 156 200 178 q 269 133 236 133 q 325 158 310 133 q 340 231 340 183 l 340 704 l 482 704 l 482 0 z "},"v":{"ha":489,"x_min":-1,"x_max":490,"o":"m 307 0 l 182 0 l -1 704 l 149 704 l 243 254 l 246 254 l 340 704 l 490 704 l 307 0 z "},"w":{"ha":744,"x_min":1,"x_max":743,"o":"m 576 0 l 451 0 l 374 418 l 371 418 l 293 0 l 168 0 l 1 704 l 151 704 l 238 267 l 240 267 l 319 704 l 431 704 l 506 267 l 508 267 l 593 704 l 743 704 l 576 0 z "},"x":{"ha":461,"x_min":-15,"x_max":476,"o":"m 158 360 l -7 704 l 143 704 l 231 504 l 318 704 l 468 704 l 300 360 l 476 0 l 326 0 l 231 215 l 135 0 l -15 0 l 158 360 z "},"y":{"ha":489,"x_min":-1,"x_max":490,"o":"m 149 704 l 246 265 l 249 265 l 344 704 l 490 704 l 288 -122 q 256 -201 276 -169 q 210 -251 236 -232 q 153 -277 183 -269 q 92 -285 124 -285 l 53 -285 l 53 -151 l 85 -151 q 121 -146 106 -151 q 148 -122 136 -140 q 169 -66 160 -103 q 192 32 179 -29 l -1 704 l 149 704 z "},"z":{"ha":438,"x_min":24,"x_max":414,"o":"m 24 113 l 253 579 l 42 579 l 42 704 l 414 704 l 414 592 l 185 133 l 414 133 l 414 0 l 24 0 l 24 113 z "},"{":{"ha":308,"x_min":4,"x_max":304,"o":"m 4 468 q 68 512 43 468 q 93 624 93 556 l 93 835 q 133 949 93 908 q 229 989 174 989 l 304 989 l 304 906 l 279 906 q 232 881 246 906 q 218 814 218 857 l 218 604 q 208 526 218 558 q 185 472 199 493 q 153 440 171 451 q 122 426 136 429 l 122 424 q 153 410 136 421 q 185 379 171 400 q 208 325 199 358 q 218 244 218 292 l 218 38 q 232 -31 218 -7 q 279 -56 246 -56 l 304 -56 l 304 -139 l 229 -139 q 133 -99 174 -139 q 93 15 93 -58 l 93 225 q 68 340 93 296 q 4 385 43 385 l 4 468 z "},"|":{"ha":308,"x_min":99,"x_max":210,"o":"m 99 1042 l 210 1042 l 210 -347 l 99 -347 l 99 1042 z "},"}":{"ha":308,"x_min":4,"x_max":304,"o":"m 304 385 q 240 340 265 385 q 215 225 215 296 l 215 15 q 175 -99 215 -58 q 79 -139 135 -139 l 4 -139 l 4 -56 l 29 -56 q 76 -31 63 -56 q 90 38 90 -7 l 90 244 q 100 325 90 292 q 124 379 110 358 q 154 410 138 400 q 186 424 171 421 l 186 426 q 154 440 171 429 q 124 472 138 451 q 100 526 110 493 q 90 604 90 558 l 90 814 q 76 881 90 857 q 29 906 63 906 l 4 906 l 4 989 l 79 989 q 175 949 135 989 q 215 835 215 908 l 215 624 q 240 512 215 556 q 304 468 265 468 l 304 385 z "},"~":{"ha":833,"x_min":96,"x_max":738,"o":"m 738 368 q 710 324 726 346 q 674 285 694 303 q 626 258 653 268 q 564 247 599 247 q 489 260 528 247 q 410 293 450 274 l 333 326 q 268 343 296 343 q 230 334 247 343 q 198 311 213 325 q 171 279 183 297 l 146 244 l 96 333 q 123 377 107 356 q 160 416 139 399 q 208 444 181 433 q 269 454 235 454 q 344 441 306 454 q 424 408 383 428 l 500 375 q 565 358 538 358 q 603 367 586 358 q 635 390 621 376 q 663 422 650 404 l 688 458 l 738 368 z "}," ":{"ha":258,"x_min":0,"x_max":0,"o":""},"¡":{"ha":333,"x_min":78,"x_max":256,"o":"m 132 460 l 201 460 l 256 -285 l 78 -285 l 132 460 m 96 704 l 238 704 l 238 563 l 96 563 l 96 704 z "},"¢":{"ha":517,"x_min":46,"x_max":469,"o":"m 228 571 q 200 544 211 565 q 189 496 189 525 l 189 197 q 228 133 189 147 l 228 571 m 228 -8 q 135 22 175 -4 q 74 89 96 49 q 53 153 58 117 q 47 232 47 189 l 47 471 q 53 550 47 514 q 74 614 58 586 q 135 681 96 654 q 228 713 175 707 l 228 817 l 285 817 l 285 713 q 420 644 371 706 q 469 488 469 582 l 328 488 q 317 544 328 524 q 285 571 306 564 l 285 133 q 317 162 308 142 q 328 204 325 182 l 469 204 q 455 119 469 158 q 413 51 440 79 q 357 10 389 26 q 285 -8 325 -6 l 285 -125 l 228 -125 l 228 -8 z "},"£":{"ha":517,"x_min":18,"x_max":533,"o":"m 18 513 l 94 513 q 55 607 68 561 q 42 724 42 653 q 54 828 42 778 q 94 915 67 878 q 164 975 121 953 q 267 997 207 997 q 338 984 301 997 q 403 943 374 971 q 453 873 433 915 q 472 771 472 831 l 472 708 l 339 708 l 339 764 q 323 833 339 801 q 263 864 307 864 q 194 822 214 864 q 175 722 175 781 q 189 613 175 668 q 219 513 203 557 l 381 513 l 381 414 l 251 414 q 269 362 261 388 q 276 292 276 336 q 264 213 276 250 q 232 140 251 175 q 286 131 256 138 q 346 125 317 125 q 391 132 369 125 q 438 169 413 139 l 532 74 q 463 10 500 29 q 378 -8 426 -8 q 328 -4 358 -8 l 264 6 q 198 14 231 10 q 142 18 165 18 q 78 10 111 18 q 32 -4 46 3 l 32 115 q 70 131 43 122 q 121 143 97 140 q 149 201 139 169 q 158 264 158 232 q 150 335 158 294 q 126 414 142 376 l 18 414 l 18 513 z "},"¤":{"ha":517,"x_min":6,"x_max":511,"o":"m 64 356 q 28 416 42 379 q 15 494 15 453 q 28 573 15 536 q 63 633 40 610 l 6 692 l 63 749 l 119 690 q 180 724 143 711 q 258 738 217 738 q 337 725 300 738 q 399 690 374 713 l 456 749 l 511 692 l 454 635 q 489 573 476 610 q 501 494 501 536 q 488 415 501 451 q 454 356 475 379 l 511 299 l 454 242 l 397 299 q 337 264 374 276 q 258 251 300 251 q 180 265 217 251 q 119 300 143 278 l 63 242 l 6 297 l 64 356 m 107 494 q 119 435 107 463 q 151 388 131 408 q 199 355 172 367 q 258 343 226 343 q 317 355 289 343 q 365 388 344 367 q 398 435 386 408 q 410 494 410 463 q 398 553 410 525 q 365 601 386 581 q 317 634 344 622 q 258 646 289 646 q 199 634 226 646 q 151 601 172 622 q 119 553 131 581 q 107 494 107 525 z "},"¥":{"ha":517,"x_min":6,"x_max":511,"o":"m 192 239 l 33 239 l 33 331 l 192 331 l 192 399 l 33 399 l 33 490 l 169 490 l 6 989 l 147 989 l 257 596 l 260 596 l 369 989 l 511 989 l 347 490 l 483 490 l 483 399 l 325 399 l 325 331 l 483 331 l 483 239 l 325 239 l 325 0 l 192 0 l 192 239 z "},"¦":{"ha":308,"x_min":99,"x_max":210,"o":"m 99 243 l 210 243 l 210 -243 l 99 -243 l 99 243 m 99 938 l 210 938 l 210 451 l 99 451 l 99 938 z "},"§":{"ha":514,"x_min":44,"x_max":468,"o":"m 451 743 l 333 743 l 333 801 q 316 860 333 833 q 264 886 299 886 q 206 856 219 886 q 192 785 192 826 q 193 744 192 760 q 201 716 194 728 q 221 693 208 704 q 257 668 233 682 l 392 581 q 432 548 417 564 q 455 508 447 532 q 465 449 463 485 q 468 360 468 414 q 465 276 468 310 q 450 217 463 242 q 413 174 438 192 q 347 136 389 156 q 403 101 382 118 q 434 63 424 85 q 448 11 444 40 q 451 -60 451 -18 q 444 -153 451 -118 q 417 -218 438 -187 q 349 -273 393 -253 q 258 -293 306 -293 q 163 -274 201 -293 q 102 -224 125 -254 q 69 -160 79 -194 q 60 -94 60 -125 l 60 -36 l 178 -36 l 178 -93 q 199 -156 178 -129 q 254 -182 221 -182 q 315 -156 297 -182 q 333 -74 333 -129 q 331 -31 333 -47 q 324 -2 329 -14 q 311 18 319 10 q 289 35 303 26 l 125 135 q 81 170 97 151 q 58 215 65 189 q 48 276 50 242 q 46 360 46 311 q 51 460 46 419 q 72 526 57 500 q 110 569 86 553 q 174 597 135 585 q 119 632 139 614 q 90 672 100 650 q 76 720 79 693 q 74 783 74 747 q 89 878 74 838 q 130 944 104 918 q 190 984 156 971 q 264 997 225 997 q 332 985 299 997 q 392 950 365 974 q 435 890 418 926 q 451 807 451 854 l 451 743 m 188 296 q 208 244 188 265 q 257 222 228 222 q 306 244 285 222 q 326 296 326 265 l 326 433 q 306 485 326 464 q 257 507 285 507 q 208 485 228 507 q 188 433 188 464 l 188 296 z "},"¨":{"ha":258,"x_min":-46,"x_max":304,"o":"m -46 956 l 79 956 l 79 814 l -46 814 l -46 956 m 179 956 l 304 956 l 304 814 l 179 814 l 179 956 z "},"©":{"ha":1111,"x_min":53,"x_max":1060,"o":"m 819 399 q 788 310 810 350 q 733 241 765 269 q 660 197 700 213 q 574 182 619 182 q 451 206 506 182 q 357 273 396 231 q 297 372 318 315 q 276 494 276 429 q 297 620 276 563 q 354 719 317 678 q 446 785 392 761 q 569 808 500 808 q 659 794 617 808 q 735 754 701 781 q 790 688 768 728 q 819 599 813 649 l 728 599 q 708 645 722 624 q 674 683 694 667 q 626 708 653 699 q 571 717 600 717 q 489 699 525 717 q 428 652 453 682 q 390 583 403 622 q 376 497 376 543 q 390 414 376 454 q 430 342 404 374 q 492 292 456 311 q 574 274 529 274 q 676 310 633 274 q 728 399 718 346 l 819 399 m 926 335 q 942 372 926 335 q 958 494 958 410 q 926 654 958 579 q 840 785 894 729 q 713 873 786 840 q 556 906 639 906 q 399 873 472 906 q 271 785 325 840 q 185 654 217 729 q 153 494 153 579 q 185 335 153 410 q 271 204 217 260 q 399 116 325 149 q 556 83 472 83 q 713 116 639 83 q 840 204 786 149 q 926 335 894 260 m 92 299 q 73 344 92 299 q 53 494 53 390 q 92 690 53 599 q 200 850 132 782 q 360 958 268 918 q 556 997 451 997 q 751 958 660 997 q 911 850 843 918 q 1019 690 979 782 q 1058 494 1058 599 q 1019 299 1058 390 q 911 139 979 207 q 751 31 843 71 q 556 -8 660 -8 q 360 31 451 -8 q 200 139 268 71 q 92 299 132 207 z "},"ª":{"ha":333,"x_min":18,"x_max":315,"o":"m 214 613 l 211 613 q 175 576 193 589 q 124 564 157 564 q 89 568 107 564 q 56 585 71 572 q 30 619 40 597 q 19 678 19 642 q 51 788 19 750 q 169 825 83 825 q 189 824 179 825 q 214 822 199 824 l 214 856 q 203 891 214 876 q 168 906 193 906 q 135 897 150 906 q 117 864 119 888 l 25 864 q 67 961 29 925 q 168 997 107 997 q 224 989 197 997 q 270 964 250 981 q 302 922 290 947 q 314 864 314 897 l 314 569 l 214 569 l 214 613 m 214 751 q 201 753 207 753 q 189 754 194 754 q 139 741 158 754 q 119 693 119 728 q 164 653 119 653 q 201 667 188 653 q 214 700 214 681 l 214 751 z "},"«":{"ha":592,"x_min":14,"x_max":553,"o":"m 553 524 l 413 385 l 553 246 l 553 104 l 271 385 l 553 665 l 553 524 m 296 524 l 156 385 l 296 246 l 296 104 l 14 385 l 296 665 l 296 524 z "},"¬":{"ha":833,"x_min":65,"x_max":768,"o":"m 657 435 l 65 435 l 65 546 l 768 546 l 768 157 l 657 157 l 657 435 z "},"­":{"ha":540,"x_min":61,"x_max":479,"o":"m 61 456 l 479 456 l 479 314 l 61 314 l 61 456 z "},"®":{"ha":1111,"x_min":53,"x_max":1058,"o":"m 457 539 l 561 539 q 663 559 629 539 q 697 626 697 579 q 667 685 697 667 q 590 704 638 704 l 457 704 l 457 539 m 365 788 l 588 788 q 789 622 789 788 q 777 551 789 581 q 744 503 765 522 q 697 473 724 483 q 639 458 669 463 l 807 201 l 696 201 l 528 456 l 457 456 l 457 201 l 365 201 l 365 788 m 926 335 q 942 372 926 335 q 958 494 958 410 q 926 654 958 579 q 840 785 894 729 q 713 873 786 840 q 556 906 639 906 q 399 873 472 906 q 271 785 325 840 q 185 654 217 729 q 153 494 153 579 q 185 335 153 410 q 271 204 217 260 q 399 116 325 149 q 556 83 472 83 q 713 116 639 83 q 840 204 786 149 q 926 335 894 260 m 92 299 q 73 344 92 299 q 53 494 53 390 q 92 690 53 599 q 200 850 132 782 q 360 958 268 918 q 556 997 451 997 q 751 958 660 997 q 911 850 843 918 q 1019 690 979 782 q 1058 494 1058 599 q 1019 299 1058 390 q 911 139 979 207 q 751 31 843 71 q 556 -8 660 -8 q 360 31 451 -8 q 200 139 268 71 q 92 299 132 207 z "},"¯":{"ha":258,"x_min":-61,"x_max":319,"o":"m -61 926 l 319 926 l 319 843 l -61 843 l -61 926 z "},"°":{"ha":361,"x_min":25,"x_max":336,"o":"m 120 902 q 108 890 120 902 q 96 842 96 878 q 120 781 96 806 q 181 757 144 757 q 241 781 217 757 q 265 842 265 806 q 241 902 265 878 q 181 926 217 926 q 120 902 144 926 m 38 781 q 31 795 38 781 q 25 842 25 810 q 38 902 25 874 q 71 951 50 931 q 120 985 92 972 q 181 997 149 997 q 241 985 213 997 q 290 951 269 972 q 324 902 311 931 q 336 842 336 874 q 324 781 336 810 q 290 732 311 753 q 241 699 269 711 q 181 686 213 686 q 120 699 149 686 q 71 732 92 711 q 38 781 50 753 z "},"±":{"ha":833,"x_min":65,"x_max":768,"o":"m 361 368 l 65 368 l 65 479 l 361 479 l 361 703 l 472 703 l 472 479 l 768 479 l 768 368 l 472 368 l 472 144 l 361 144 l 361 368 m 65 111 l 768 111 l 768 0 l 65 0 l 65 111 z "},"²":{"ha":336,"x_min":15,"x_max":322,"o":"m 15 861 q 27 915 15 890 q 60 958 39 940 q 108 987 81 976 q 168 997 136 997 q 226 988 199 997 q 275 961 254 978 q 308 922 296 944 q 321 871 321 899 l 321 825 q 313 767 321 789 q 289 721 304 744 l 157 499 l 321 499 l 321 399 l 15 399 l 15 474 l 193 768 q 205 794 200 781 q 210 822 210 807 l 210 854 q 196 886 210 875 q 167 897 182 897 q 139 886 151 897 q 126 854 126 875 l 126 811 l 15 811 l 15 861 z "},"³":{"ha":336,"x_min":14,"x_max":321,"o":"m 139 750 q 194 759 179 750 q 210 797 208 768 l 210 856 q 199 885 210 874 q 168 897 188 897 q 136 883 146 897 q 126 856 126 868 l 126 819 l 15 819 l 15 864 q 58 960 15 922 q 171 997 101 997 q 238 985 210 997 q 284 953 265 974 q 312 908 303 933 q 321 858 321 883 l 321 801 q 311 748 321 771 q 264 706 301 725 q 309 663 297 686 q 321 604 321 639 l 321 533 q 313 483 321 508 q 285 438 304 457 q 238 406 267 418 q 168 393 208 393 q 113 400 140 393 q 63 422 85 407 q 28 463 42 438 q 15 524 15 488 l 15 571 l 126 571 l 126 539 q 138 506 126 518 q 168 493 149 493 q 198 506 186 493 q 210 535 210 519 l 210 607 q 196 649 210 639 q 139 658 182 658 l 139 750 z "},"´":{"ha":258,"x_min":39,"x_max":314,"o":"m 164 993 l 314 993 l 131 797 l 39 797 l 164 993 z "},"µ":{"ha":540,"x_min":58,"x_max":482,"o":"m 482 0 l 340 0 l 340 68 l 338 68 q 316 34 328 49 q 293 10 304 19 q 246 -8 269 -8 q 203 6 217 -8 l 200 6 l 200 -285 l 58 -285 l 58 704 l 200 704 l 200 217 q 218 156 200 178 q 269 133 236 133 q 325 158 310 133 q 340 231 340 183 l 340 704 l 482 704 l 482 0 z "},"¶":{"ha":617,"x_min":10,"x_max":553,"o":"m 253 464 q 164 484 207 464 q 87 539 121 504 q 32 621 53 574 q 11 722 11 668 q 33 840 11 790 q 95 924 56 890 q 190 973 135 957 q 314 989 246 989 l 553 989 l 553 -285 l 453 -285 l 453 918 l 353 918 l 353 -285 l 253 -285 l 253 464 z "},"·":{"ha":258,"x_min":39,"x_max":219,"o":"m 67 351 q 53 365 67 351 q 40 414 40 378 q 67 476 40 450 q 129 503 93 503 q 192 476 165 503 q 218 414 218 450 q 192 351 218 378 q 129 325 165 325 q 67 351 93 325 z "},"¸":{"ha":258,"x_min":-21,"x_max":281,"o":"m 118 0 l 182 0 l 118 -83 q 140 -81 129 -82 q 161 -81 150 -81 q 218 -90 196 -81 q 254 -116 240 -100 q 274 -150 268 -132 q 279 -185 279 -168 q 263 -242 279 -218 q 222 -282 247 -267 q 167 -304 197 -297 q 108 -311 138 -311 q 33 -301 68 -311 q -21 -285 -1 -292 l 3 -226 q 47 -241 25 -235 q 93 -247 69 -247 q 117 -245 104 -247 q 142 -237 131 -243 q 160 -219 153 -231 q 168 -190 168 -208 q 149 -152 168 -167 q 106 -137 129 -137 q 51 -147 76 -137 l 28 -119 l 118 0 z "},"¹":{"ha":336,"x_min":38,"x_max":240,"o":"m 129 889 l 38 829 l 38 929 l 129 989 l 240 989 l 240 399 l 129 399 l 129 889 z "},"º":{"ha":333,"x_min":25,"x_max":308,"o":"m 25 860 q 63 958 25 919 q 167 997 101 997 q 270 958 232 997 q 308 860 308 919 l 308 701 q 270 603 308 642 q 167 564 232 564 q 63 603 101 564 q 25 701 25 642 l 25 860 m 125 703 q 167 656 125 656 q 208 703 208 656 l 208 857 q 167 906 208 906 q 125 857 125 906 l 125 703 z "},"»":{"ha":592,"x_min":39,"x_max":578,"o":"m 296 246 l 436 385 l 296 524 l 296 665 l 578 385 l 296 104 l 296 246 m 39 246 l 179 385 l 39 524 l 39 665 l 321 385 l 39 104 l 39 246 z "},"¼":{"ha":771,"x_min":15,"x_max":756,"o":"m 632 1013 l 715 1013 l 108 -24 l 25 -24 l 632 1013 m 107 889 l 15 829 l 15 929 l 107 989 l 218 989 l 218 399 l 107 399 l 107 889 m 603 86 l 404 86 l 404 172 l 540 593 l 651 593 l 521 178 l 603 178 l 603 338 l 714 338 l 714 178 l 756 178 l 756 86 l 714 86 l 714 0 l 603 0 l 603 86 z "},"½":{"ha":771,"x_min":15,"x_max":756,"o":"m 632 1013 l 715 1013 l 108 -24 l 25 -24 l 632 1013 m 107 889 l 15 829 l 15 929 l 107 989 l 218 989 l 218 399 l 107 399 l 107 889 m 447 75 l 628 369 q 640 395 635 382 q 644 424 644 408 l 644 456 q 631 488 644 476 q 601 499 617 499 q 571 488 583 499 q 558 456 558 476 l 558 413 l 447 413 l 447 463 q 492 560 447 521 q 603 599 536 599 q 661 589 633 599 q 710 563 689 579 q 743 523 731 546 q 756 472 756 500 l 756 426 q 747 368 756 390 q 724 322 739 346 l 592 100 l 756 100 l 756 0 l 447 0 l 447 75 z "},"¾":{"ha":771,"x_min":14,"x_max":756,"o":"m 658 1013 l 742 1013 l 135 -24 l 51 -24 l 658 1013 m 139 750 q 194 759 179 750 q 210 797 208 768 l 210 856 q 199 885 210 874 q 168 897 188 897 q 136 883 146 897 q 126 856 126 868 l 126 819 l 15 819 l 15 864 q 58 960 15 922 q 171 997 101 997 q 238 985 210 997 q 284 953 265 974 q 312 908 303 933 q 321 858 321 883 l 321 801 q 311 748 321 771 q 264 706 301 725 q 309 663 297 686 q 321 604 321 639 l 321 533 q 313 483 321 508 q 285 438 304 457 q 238 406 267 418 q 168 393 208 393 q 113 400 140 393 q 63 422 85 407 q 28 463 42 438 q 15 524 15 488 l 15 571 l 126 571 l 126 539 q 138 506 126 518 q 168 493 149 493 q 198 506 186 493 q 210 535 210 519 l 210 607 q 196 649 210 639 q 139 658 182 658 l 139 750 m 603 86 l 404 86 l 404 172 l 540 593 l 651 593 l 521 178 l 603 178 l 603 338 l 714 338 l 714 178 l 756 178 l 756 86 l 714 86 l 714 0 l 603 0 l 603 86 z "},"¿":{"ha":514,"x_min":44,"x_max":469,"o":"m 469 -82 q 453 -165 469 -126 q 407 -231 436 -203 q 339 -276 378 -260 q 256 -293 300 -293 q 162 -272 204 -293 q 92 -214 119 -251 q 69 -178 78 -196 q 54 -142 60 -161 q 47 -100 49 -124 q 44 -44 44 -76 q 45 15 44 -10 q 49 58 46 40 q 56 90 51 76 q 67 114 60 103 l 163 278 q 179 312 172 294 q 186 349 186 329 l 186 460 l 328 460 l 328 331 q 318 272 328 300 q 293 218 308 244 l 204 74 q 190 35 193 56 q 186 -7 186 14 l 186 -81 q 206 -131 186 -110 q 256 -151 226 -151 q 304 -133 281 -151 q 328 -81 328 -115 l 328 0 l 469 0 l 469 -82 m 328 563 l 186 563 l 186 704 l 328 704 l 328 563 z "},"À":{"ha":565,"x_min":3,"x_max":563,"o":"m 283 704 l 281 704 l 211 346 l 353 346 l 283 704 m 224 989 l 342 989 l 563 0 l 421 0 l 379 213 l 186 213 l 144 0 l 3 0 l 224 989 m 374 1033 l 282 1033 l 99 1229 l 249 1229 l 374 1033 z "},"Á":{"ha":565,"x_min":3,"x_max":563,"o":"m 283 704 l 281 704 l 211 346 l 353 346 l 283 704 m 224 989 l 342 989 l 563 0 l 421 0 l 379 213 l 186 213 l 144 0 l 3 0 l 224 989 m 318 1229 l 468 1229 l 285 1033 l 193 1033 l 318 1229 z "},"Â":{"ha":565,"x_min":3,"x_max":563,"o":"m 283 704 l 281 704 l 211 346 l 353 346 l 283 704 m 224 989 l 342 989 l 563 0 l 421 0 l 379 213 l 186 213 l 144 0 l 3 0 l 224 989 m 218 1229 l 349 1229 l 485 1033 l 376 1033 l 283 1165 l 190 1033 l 82 1033 l 218 1229 z "},"Ã":{"ha":565,"x_min":3,"x_max":563,"o":"m 283 704 l 281 704 l 211 346 l 353 346 l 283 704 m 224 989 l 342 989 l 563 0 l 421 0 l 379 213 l 186 213 l 144 0 l 3 0 l 224 989 m 519 1207 q 503 1147 513 1175 q 476 1099 493 1119 q 436 1065 460 1078 q 379 1053 413 1053 q 334 1061 363 1053 q 275 1081 306 1069 l 218 1100 q 179 1108 192 1108 q 135 1091 150 1108 q 118 1046 119 1074 l 47 1046 q 63 1106 53 1078 q 90 1154 74 1133 q 131 1188 107 1175 q 188 1200 154 1200 q 233 1192 204 1200 l 292 1172 q 349 1153 322 1161 q 388 1144 376 1144 q 432 1162 417 1144 q 449 1207 447 1179 l 519 1207 z "},"Ä":{"ha":565,"x_min":3,"x_max":563,"o":"m 283 704 l 281 704 l 211 346 l 353 346 l 283 704 m 224 989 l 342 989 l 563 0 l 421 0 l 379 213 l 186 213 l 144 0 l 3 0 l 224 989 m 108 1192 l 233 1192 l 233 1050 l 108 1050 l 108 1192 m 333 1192 l 458 1192 l 458 1050 l 333 1050 l 333 1192 z "},"Å":{"ha":565,"x_min":3,"x_max":563,"o":"m 283 704 l 281 704 l 211 346 l 353 346 l 283 704 m 224 989 l 342 989 l 563 0 l 421 0 l 379 213 l 186 213 l 144 0 l 3 0 l 224 989 m 153 1105 q 147 1118 153 1105 q 142 1160 142 1131 q 153 1215 142 1189 q 183 1260 164 1240 q 228 1290 203 1279 q 283 1301 254 1301 q 338 1290 313 1301 q 383 1260 364 1279 q 414 1215 403 1240 q 425 1160 425 1189 q 414 1105 425 1131 q 383 1060 403 1079 q 338 1029 364 1040 q 283 1018 313 1018 q 228 1029 254 1018 q 183 1060 203 1040 q 153 1105 164 1079 m 223 1220 q 211 1208 223 1220 q 199 1160 199 1196 q 223 1099 199 1124 q 283 1075 247 1075 q 344 1099 319 1075 q 368 1160 368 1124 q 344 1220 368 1196 q 283 1244 319 1244 q 223 1220 247 1244 z "},"Æ":{"ha":849,"x_min":3,"x_max":824,"o":"m 283 989 l 824 989 l 824 856 l 543 856 l 543 565 l 788 565 l 788 432 l 543 432 l 543 142 l 824 142 l 824 0 l 401 0 l 401 213 l 207 213 l 153 0 l 3 0 l 283 989 m 401 856 l 368 856 l 240 346 l 401 346 l 401 856 z "},"Ç":{"ha":565,"x_min":57,"x_max":517,"o":"m 267 -8 q 192 8 229 -6 q 124 49 154 22 q 76 119 94 76 q 58 225 58 163 l 58 769 q 75 860 58 818 q 122 932 92 901 q 195 980 153 963 q 289 997 238 997 q 379 980 338 997 q 451 931 421 963 q 499 856 482 900 q 517 761 517 813 l 517 706 l 375 706 l 375 753 q 351 825 375 794 q 288 856 328 856 q 217 823 235 856 q 200 740 200 790 l 200 235 q 219 163 200 192 q 286 133 238 133 q 316 138 300 133 q 345 154 332 143 q 367 185 358 165 q 375 233 375 204 l 375 282 l 517 282 l 517 221 q 503 143 517 181 q 465 75 489 106 q 406 24 440 44 q 332 -6 372 3 l 272 -83 q 294 -81 283 -82 q 315 -81 304 -81 q 372 -90 350 -81 q 408 -116 394 -100 q 428 -150 422 -132 q 433 -185 433 -168 q 417 -242 433 -218 q 376 -282 401 -267 q 322 -304 351 -297 q 263 -311 292 -311 q 188 -301 222 -311 q 133 -285 153 -292 l 157 -226 q 201 -241 179 -235 q 247 -247 224 -247 q 272 -245 258 -247 q 296 -237 285 -243 q 315 -219 307 -231 q 322 -190 322 -208 q 303 -152 322 -167 q 260 -137 283 -137 q 206 -147 231 -137 l 182 -119 l 267 -8 z "},"È":{"ha":514,"x_min":67,"x_max":489,"o":"m 67 989 l 489 989 l 489 856 l 208 856 l 208 565 l 453 565 l 453 432 l 208 432 l 208 142 l 489 142 l 489 0 l 67 0 l 67 989 m 361 1033 l 269 1033 l 86 1229 l 236 1229 l 361 1033 z "},"É":{"ha":514,"x_min":67,"x_max":489,"o":"m 67 989 l 489 989 l 489 856 l 208 856 l 208 565 l 453 565 l 453 432 l 208 432 l 208 142 l 489 142 l 489 0 l 67 0 l 67 989 m 306 1229 l 456 1229 l 272 1033 l 181 1033 l 306 1229 z "},"Ê":{"ha":514,"x_min":67,"x_max":489,"o":"m 67 989 l 489 989 l 489 856 l 208 856 l 208 565 l 453 565 l 453 432 l 208 432 l 208 142 l 489 142 l 489 0 l 67 0 l 67 989 m 206 1229 l 336 1229 l 472 1033 l 364 1033 l 271 1165 l 178 1033 l 69 1033 l 206 1229 z "},"Ë":{"ha":514,"x_min":67,"x_max":489,"o":"m 67 989 l 489 989 l 489 856 l 208 856 l 208 565 l 453 565 l 453 432 l 208 432 l 208 142 l 489 142 l 489 0 l 67 0 l 67 989 m 96 1192 l 221 1192 l 221 1050 l 96 1050 l 96 1192 m 321 1192 l 446 1192 l 446 1050 l 321 1050 l 321 1192 z "},"Ì":{"ha":283,"x_min":-43,"x_max":232,"o":"m 71 989 l 213 989 l 213 0 l 71 0 l 71 989 m 232 1033 l 140 1033 l -43 1229 l 107 1229 l 232 1033 z "},"Í":{"ha":283,"x_min":51,"x_max":326,"o":"m 71 989 l 213 989 l 213 0 l 71 0 l 71 989 m 176 1229 l 326 1229 l 143 1033 l 51 1033 l 176 1229 z "},"Î":{"ha":283,"x_min":-60,"x_max":343,"o":"m 71 989 l 213 989 l 213 0 l 71 0 l 71 989 m 76 1229 l 207 1229 l 343 1033 l 235 1033 l 142 1165 l 49 1033 l -60 1033 l 76 1229 z "},"Ï":{"ha":283,"x_min":-33,"x_max":317,"o":"m 71 989 l 213 989 l 213 0 l 71 0 l 71 989 m -33 1192 l 92 1192 l 92 1050 l -33 1050 l -33 1192 m 192 1192 l 317 1192 l 317 1050 l 192 1050 l 192 1192 z "},"Ð":{"ha":592,"x_min":0,"x_max":526,"o":"m 208 578 l 306 578 l 306 486 l 208 486 l 208 133 l 274 133 q 358 163 333 133 q 383 257 383 193 l 383 733 q 360 824 383 792 q 274 856 336 856 l 208 856 l 208 578 m 67 486 l 0 486 l 0 578 l 67 578 l 67 989 l 276 989 q 461 922 397 989 q 525 733 525 854 l 525 271 q 458 66 525 132 q 264 0 390 0 l 67 0 l 67 486 z "},"Ñ":{"ha":617,"x_min":61,"x_max":556,"o":"m 61 989 l 197 989 l 411 393 l 414 393 l 414 989 l 556 989 l 556 0 l 422 0 l 206 594 l 203 594 l 203 0 l 61 0 l 61 989 m 544 1207 q 528 1147 538 1175 q 501 1099 518 1119 q 461 1065 485 1078 q 404 1053 438 1053 q 359 1061 388 1053 q 300 1081 331 1069 l 243 1100 q 204 1108 217 1108 q 160 1091 175 1108 q 143 1046 144 1074 l 72 1046 q 88 1106 78 1078 q 115 1154 99 1133 q 156 1188 132 1175 q 213 1200 179 1200 q 258 1192 229 1200 l 317 1172 q 374 1153 347 1161 q 413 1144 401 1144 q 457 1162 442 1144 q 474 1207 472 1179 l 544 1207 z "},"Ò":{"ha":592,"x_min":58,"x_max":533,"o":"m 58 756 q 79 861 58 815 q 134 937 100 907 q 210 982 168 967 q 296 997 253 997 q 381 982 339 997 q 458 937 424 967 q 513 861 492 907 q 533 756 533 815 l 533 233 q 513 127 533 172 q 458 52 492 82 q 381 7 424 22 q 296 -8 339 -8 q 210 7 253 -8 q 134 52 168 22 q 79 127 100 82 q 58 233 58 172 l 58 756 m 200 233 q 228 158 200 182 q 296 133 257 133 q 363 158 335 133 q 392 233 392 182 l 392 756 q 363 831 392 807 q 296 856 335 856 q 228 831 257 856 q 200 756 200 807 l 200 233 m 386 1033 l 294 1033 l 111 1229 l 261 1229 l 386 1033 z "},"Ó":{"ha":592,"x_min":58,"x_max":533,"o":"m 58 756 q 79 861 58 815 q 134 937 100 907 q 210 982 168 967 q 296 997 253 997 q 381 982 339 997 q 458 937 424 967 q 513 861 492 907 q 533 756 533 815 l 533 233 q 513 127 533 172 q 458 52 492 82 q 381 7 424 22 q 296 -8 339 -8 q 210 7 253 -8 q 134 52 168 22 q 79 127 100 82 q 58 233 58 172 l 58 756 m 200 233 q 228 158 200 182 q 296 133 257 133 q 363 158 335 133 q 392 233 392 182 l 392 756 q 363 831 392 807 q 296 856 335 856 q 228 831 257 856 q 200 756 200 807 l 200 233 m 331 1229 l 481 1229 l 297 1033 l 206 1033 l 331 1229 z "},"Ô":{"ha":592,"x_min":58,"x_max":533,"o":"m 58 756 q 79 861 58 815 q 134 937 100 907 q 210 982 168 967 q 296 997 253 997 q 381 982 339 997 q 458 937 424 967 q 513 861 492 907 q 533 756 533 815 l 533 233 q 513 127 533 172 q 458 52 492 82 q 381 7 424 22 q 296 -8 339 -8 q 210 7 253 -8 q 134 52 168 22 q 79 127 100 82 q 58 233 58 172 l 58 756 m 200 233 q 228 158 200 182 q 296 133 257 133 q 363 158 335 133 q 392 233 392 182 l 392 756 q 363 831 392 807 q 296 856 335 856 q 228 831 257 856 q 200 756 200 807 l 200 233 m 231 1229 l 361 1229 l 497 1033 l 389 1033 l 296 1165 l 203 1033 l 94 1033 l 231 1229 z "},"Õ":{"ha":592,"x_min":58,"x_max":533,"o":"m 58 756 q 79 861 58 815 q 134 937 100 907 q 210 982 168 967 q 296 997 253 997 q 381 982 339 997 q 458 937 424 967 q 513 861 492 907 q 533 756 533 815 l 533 233 q 513 127 533 172 q 458 52 492 82 q 381 7 424 22 q 296 -8 339 -8 q 210 7 253 -8 q 134 52 168 22 q 79 127 100 82 q 58 233 58 172 l 58 756 m 200 233 q 228 158 200 182 q 296 133 257 133 q 363 158 335 133 q 392 233 392 182 l 392 756 q 363 831 392 807 q 296 856 335 856 q 228 831 257 856 q 200 756 200 807 l 200 233 m 532 1207 q 515 1147 525 1175 q 489 1099 506 1119 q 449 1065 472 1078 q 392 1053 425 1053 q 347 1061 375 1053 q 288 1081 318 1069 l 231 1100 q 192 1108 204 1108 q 147 1091 163 1108 q 131 1046 132 1074 l 60 1046 q 76 1106 65 1078 q 103 1154 86 1133 q 143 1188 119 1175 q 200 1200 167 1200 q 244 1192 217 1200 l 304 1172 q 362 1153 335 1161 q 400 1144 389 1144 q 444 1162 429 1144 q 461 1207 460 1179 l 532 1207 z "},"Ö":{"ha":592,"x_min":58,"x_max":533,"o":"m 58 756 q 79 861 58 815 q 134 937 100 907 q 210 982 168 967 q 296 997 253 997 q 381 982 339 997 q 458 937 424 967 q 513 861 492 907 q 533 756 533 815 l 533 233 q 513 127 533 172 q 458 52 492 82 q 381 7 424 22 q 296 -8 339 -8 q 210 7 253 -8 q 134 52 168 22 q 79 127 100 82 q 58 233 58 172 l 58 756 m 200 233 q 228 158 200 182 q 296 133 257 133 q 363 158 335 133 q 392 233 392 182 l 392 756 q 363 831 392 807 q 296 856 335 856 q 228 831 257 856 q 200 756 200 807 l 200 233 m 121 1192 l 246 1192 l 246 1050 l 121 1050 l 121 1192 m 346 1192 l 471 1192 l 471 1050 l 346 1050 l 346 1192 z "},"×":{"ha":833,"x_min":93,"x_max":740,"o":"m 339 351 l 93 597 l 172 675 l 417 431 l 663 675 l 740 597 l 496 351 l 740 107 l 663 28 l 417 274 l 172 28 l 93 107 l 339 351 z "},"Ø":{"ha":592,"x_min":14,"x_max":578,"o":"m 83 121 q 58 233 58 168 l 58 756 q 79 861 58 815 q 134 937 100 907 q 210 982 168 967 q 296 997 253 997 q 388 979 343 997 q 469 925 433 961 l 525 1042 l 578 1011 l 508 868 q 526 817 519 846 q 533 756 533 789 l 533 233 q 513 127 533 172 q 458 52 492 82 q 381 7 424 22 q 296 -8 339 -8 q 201 10 247 -8 q 122 64 156 28 l 67 -53 l 14 -22 l 83 121 m 392 763 q 360 833 389 811 q 296 856 332 856 q 228 831 257 856 q 200 756 200 807 l 200 364 l 203 364 l 392 763 m 200 226 q 231 156 203 179 q 296 133 258 133 q 363 158 335 133 q 392 233 392 182 l 392 624 l 389 624 l 200 226 z "},"Ù":{"ha":592,"x_min":65,"x_max":525,"o":"m 525 222 q 507 132 525 174 q 458 59 489 90 q 385 10 426 28 q 296 -8 343 -8 q 207 10 249 -8 q 134 59 165 28 q 85 132 103 90 q 67 222 67 174 l 67 989 l 208 989 l 208 236 q 233 158 208 183 q 296 133 258 133 q 358 158 333 133 q 383 236 383 183 l 383 989 l 525 989 l 525 222 m 386 1033 l 294 1033 l 111 1229 l 261 1229 l 386 1033 z "},"Ú":{"ha":592,"x_min":65,"x_max":525,"o":"m 525 222 q 507 132 525 174 q 458 59 489 90 q 385 10 426 28 q 296 -8 343 -8 q 207 10 249 -8 q 134 59 165 28 q 85 132 103 90 q 67 222 67 174 l 67 989 l 208 989 l 208 236 q 233 158 208 183 q 296 133 258 133 q 358 158 333 133 q 383 236 383 183 l 383 989 l 525 989 l 525 222 m 331 1229 l 481 1229 l 297 1033 l 206 1033 l 331 1229 z "},"Û":{"ha":592,"x_min":65,"x_max":525,"o":"m 525 222 q 507 132 525 174 q 458 59 489 90 q 385 10 426 28 q 296 -8 343 -8 q 207 10 249 -8 q 134 59 165 28 q 85 132 103 90 q 67 222 67 174 l 67 989 l 208 989 l 208 236 q 233 158 208 183 q 296 133 258 133 q 358 158 333 133 q 383 236 383 183 l 383 989 l 525 989 l 525 222 m 231 1229 l 361 1229 l 497 1033 l 389 1033 l 296 1165 l 203 1033 l 94 1033 l 231 1229 z "},"Ü":{"ha":592,"x_min":65,"x_max":525,"o":"m 525 222 q 507 132 525 174 q 458 59 489 90 q 385 10 426 28 q 296 -8 343 -8 q 207 10 249 -8 q 134 59 165 28 q 85 132 103 90 q 67 222 67 174 l 67 989 l 208 989 l 208 236 q 233 158 208 183 q 296 133 258 133 q 358 158 333 133 q 383 236 383 183 l 383 989 l 525 989 l 525 222 m 121 1192 l 246 1192 l 246 1050 l 121 1050 l 121 1192 m 346 1192 l 471 1192 l 471 1050 l 346 1050 l 346 1192 z "},"Ý":{"ha":539,"x_min":4,"x_max":535,"o":"m 199 418 l 4 989 l 154 989 l 268 596 l 271 596 l 385 989 l 535 989 l 340 418 l 340 0 l 199 0 l 199 418 m 304 1229 l 454 1229 l 271 1033 l 179 1033 l 304 1229 z "},"Þ":{"ha":565,"x_min":67,"x_max":528,"o":"m 67 989 l 208 989 l 208 817 l 279 817 q 382 801 338 817 q 463 747 426 786 q 513 656 499 708 q 526 515 526 604 q 519 403 526 450 q 486 317 511 357 q 408 241 457 268 q 281 214 360 214 l 208 214 l 208 0 l 67 0 l 67 989 m 208 347 l 276 347 q 343 360 319 347 q 378 394 367 372 q 391 446 389 415 q 393 514 393 476 q 391 580 393 549 q 378 634 389 611 q 346 670 368 657 q 282 683 324 683 l 208 683 l 208 347 z "},"ß":{"ha":540,"x_min":58,"x_max":482,"o":"m 58 767 q 71 854 58 813 q 109 928 83 896 q 174 978 135 960 q 268 997 214 997 q 369 978 328 997 q 435 924 410 958 q 471 844 460 890 q 482 744 482 797 q 478 682 482 707 q 466 638 475 657 q 441 603 457 618 q 400 572 425 589 q 461 517 440 550 q 482 431 482 483 l 482 186 q 465 83 482 121 q 419 24 447 44 q 355 -2 392 4 q 279 -8 318 -8 l 279 125 q 325 138 310 125 q 340 196 340 151 l 340 460 q 324 497 340 488 q 279 506 308 506 l 279 631 q 326 641 311 631 q 340 685 340 651 l 340 796 q 327 844 340 825 q 274 864 314 864 q 217 838 233 864 q 200 742 200 811 l 200 0 l 58 0 l 58 767 z "},"à":{"ha":514,"x_min":35,"x_max":468,"o":"m 326 72 l 324 72 q 267 13 296 33 q 188 -8 239 -8 q 136 -1 163 -8 q 87 27 110 7 q 49 84 64 47 q 35 179 35 121 q 44 284 35 239 q 80 359 54 329 q 149 403 106 389 q 258 418 192 418 q 289 417 274 418 q 326 414 304 415 l 326 488 q 311 547 326 524 q 256 571 296 571 q 205 553 228 571 q 175 500 182 535 l 38 500 q 101 653 44 596 q 168 697 129 681 q 256 713 207 713 q 339 699 300 713 q 406 657 378 685 q 451 588 435 629 q 468 490 468 546 l 468 0 l 326 0 l 326 72 m 326 303 q 288 307 303 307 q 209 285 242 307 q 176 207 176 264 q 196 142 176 167 q 250 117 215 117 q 306 140 286 117 q 326 207 326 164 l 326 303 m 347 797 l 256 797 l 72 993 l 222 993 l 347 797 z "},"á":{"ha":514,"x_min":35,"x_max":468,"o":"m 326 72 l 324 72 q 267 13 296 33 q 188 -8 239 -8 q 136 -1 163 -8 q 87 27 110 7 q 49 84 64 47 q 35 179 35 121 q 44 284 35 239 q 80 359 54 329 q 149 403 106 389 q 258 418 192 418 q 289 417 274 418 q 326 414 304 415 l 326 488 q 311 547 326 524 q 256 571 296 571 q 205 553 228 571 q 175 500 182 535 l 38 500 q 101 653 44 596 q 168 697 129 681 q 256 713 207 713 q 339 699 300 713 q 406 657 378 685 q 451 588 435 629 q 468 490 468 546 l 468 0 l 326 0 l 326 72 m 326 303 q 288 307 303 307 q 209 285 242 307 q 176 207 176 264 q 196 142 176 167 q 250 117 215 117 q 306 140 286 117 q 326 207 326 164 l 326 303 m 292 993 l 442 993 l 258 797 l 167 797 l 292 993 z "},"â":{"ha":514,"x_min":35,"x_max":468,"o":"m 326 72 l 324 72 q 267 13 296 33 q 188 -8 239 -8 q 136 -1 163 -8 q 87 27 110 7 q 49 84 64 47 q 35 179 35 121 q 44 284 35 239 q 80 359 54 329 q 149 403 106 389 q 258 418 192 418 q 289 417 274 418 q 326 414 304 415 l 326 488 q 311 547 326 524 q 256 571 296 571 q 205 553 228 571 q 175 500 182 535 l 38 500 q 101 653 44 596 q 168 697 129 681 q 256 713 207 713 q 339 699 300 713 q 406 657 378 685 q 451 588 435 629 q 468 490 468 546 l 468 0 l 326 0 l 326 72 m 326 303 q 288 307 303 307 q 209 285 242 307 q 176 207 176 264 q 196 142 176 167 q 250 117 215 117 q 306 140 286 117 q 326 207 326 164 l 326 303 m 192 993 l 322 993 l 458 797 l 350 797 l 257 929 l 164 797 l 56 797 l 192 993 z "},"ã":{"ha":514,"x_min":21,"x_max":493,"o":"m 326 72 l 324 72 q 267 13 296 33 q 188 -8 239 -8 q 136 -1 163 -8 q 87 27 110 7 q 49 84 64 47 q 35 179 35 121 q 44 284 35 239 q 80 359 54 329 q 149 403 106 389 q 258 418 192 418 q 289 417 274 418 q 326 414 304 415 l 326 488 q 311 547 326 524 q 256 571 296 571 q 205 553 228 571 q 175 500 182 535 l 38 500 q 101 653 44 596 q 168 697 129 681 q 256 713 207 713 q 339 699 300 713 q 406 657 378 685 q 451 588 435 629 q 468 490 468 546 l 468 0 l 326 0 l 326 72 m 326 303 q 288 307 303 307 q 209 285 242 307 q 176 207 176 264 q 196 142 176 167 q 250 117 215 117 q 306 140 286 117 q 326 207 326 164 l 326 303 m 493 971 q 476 911 486 939 q 450 863 467 883 q 410 829 433 842 q 353 817 386 817 q 308 825 336 817 q 249 844 279 833 l 192 864 q 153 872 165 872 q 108 855 124 872 q 92 810 93 838 l 21 810 q 37 869 26 842 q 64 918 47 897 q 104 951 81 939 q 161 964 128 964 q 206 956 178 964 l 265 936 q 323 917 296 925 q 361 908 350 908 q 406 926 390 908 q 422 971 421 943 l 493 971 z "},"ä":{"ha":514,"x_min":35,"x_max":468,"o":"m 326 72 l 324 72 q 267 13 296 33 q 188 -8 239 -8 q 136 -1 163 -8 q 87 27 110 7 q 49 84 64 47 q 35 179 35 121 q 44 284 35 239 q 80 359 54 329 q 149 403 106 389 q 258 418 192 418 q 289 417 274 418 q 326 414 304 415 l 326 488 q 311 547 326 524 q 256 571 296 571 q 205 553 228 571 q 175 500 182 535 l 38 500 q 101 653 44 596 q 168 697 129 681 q 256 713 207 713 q 339 699 300 713 q 406 657 378 685 q 451 588 435 629 q 468 490 468 546 l 468 0 l 326 0 l 326 72 m 326 303 q 288 307 303 307 q 209 285 242 307 q 176 207 176 264 q 196 142 176 167 q 250 117 215 117 q 306 140 286 117 q 326 207 326 164 l 326 303 m 82 956 l 207 956 l 207 814 l 82 814 l 82 956 m 307 956 l 432 956 l 432 814 l 307 814 l 307 956 z "},"å":{"ha":514,"x_min":35,"x_max":468,"o":"m 326 72 l 324 72 q 267 13 296 33 q 188 -8 239 -8 q 136 -1 163 -8 q 87 27 110 7 q 49 84 64 47 q 35 179 35 121 q 44 284 35 239 q 80 359 54 329 q 149 403 106 389 q 258 418 192 418 q 289 417 274 418 q 326 414 304 415 l 326 488 q 311 547 326 524 q 256 571 296 571 q 205 553 228 571 q 175 500 182 535 l 38 500 q 101 653 44 596 q 168 697 129 681 q 256 713 207 713 q 339 699 300 713 q 406 657 378 685 q 451 588 435 629 q 468 490 468 546 l 468 0 l 326 0 l 326 72 m 326 303 q 288 307 303 307 q 209 285 242 307 q 176 207 176 264 q 196 142 176 167 q 250 117 215 117 q 306 140 286 117 q 326 207 326 164 l 326 303 m 126 862 q 121 875 126 862 q 115 917 115 888 q 126 972 115 946 q 157 1017 138 997 q 202 1047 176 1036 q 257 1058 228 1058 q 312 1047 286 1058 q 357 1017 338 1036 q 388 972 376 997 q 399 917 399 946 q 388 862 399 888 q 357 817 376 836 q 312 786 338 797 q 257 775 286 775 q 202 786 228 775 q 157 817 176 797 q 126 862 138 836 m 197 977 q 184 965 197 977 q 172 917 172 953 q 197 856 172 881 q 257 832 221 832 q 317 856 293 832 q 342 917 342 881 q 317 977 342 953 q 257 1001 293 1001 q 197 977 221 1001 z "},"æ":{"ha":794,"x_min":35,"x_max":750,"o":"m 468 410 l 607 410 l 607 490 q 588 551 607 531 q 538 571 569 571 q 487 551 506 571 q 468 490 468 531 l 468 410 m 749 299 l 468 299 l 468 203 q 487 151 468 169 q 538 133 506 133 q 591 157 578 133 q 607 204 604 181 l 749 204 q 733 119 749 158 q 690 53 718 81 q 622 8 661 25 q 538 -8 583 -8 q 420 21 467 -10 q 353 92 374 51 q 284 17 328 42 q 188 -8 240 -8 q 136 -1 163 -8 q 87 27 110 7 q 49 84 64 47 q 35 179 35 121 q 44 284 35 239 q 80 359 54 329 q 149 403 106 389 q 258 418 192 418 q 289 417 274 418 q 326 414 304 415 l 326 488 q 311 547 326 524 q 256 571 296 571 q 205 553 228 571 q 175 500 182 535 l 38 500 q 57 586 40 547 q 101 653 74 625 q 168 697 129 681 q 256 713 207 713 q 334 699 300 713 q 396 663 368 686 q 460 699 422 686 q 538 713 497 713 q 626 696 586 713 q 692 649 665 679 q 734 579 719 619 q 749 493 749 539 l 749 299 m 326 303 q 288 307 303 307 q 209 285 242 307 q 176 207 176 264 q 196 142 176 167 q 250 117 215 117 q 306 140 286 117 q 326 207 326 164 l 326 303 z "},"ç":{"ha":514,"x_min":65,"x_max":489,"o":"m 243 -6 q 152 28 190 1 q 93 93 114 54 q 72 157 78 121 q 67 236 67 193 l 67 468 q 72 547 67 511 q 93 611 78 583 q 165 685 118 657 q 278 713 213 713 q 366 696 326 713 q 433 649 406 679 q 474 578 460 619 q 489 488 489 536 l 347 488 q 328 551 347 531 q 278 571 310 571 q 227 551 246 571 q 208 490 208 531 l 208 203 q 227 151 208 169 q 278 133 246 133 q 331 157 318 133 q 347 204 344 181 l 489 204 q 474 121 489 160 q 432 54 460 82 q 306 -6 382 3 l 246 -83 q 267 -81 257 -82 q 289 -81 278 -81 q 346 -90 324 -81 q 382 -116 368 -100 q 401 -150 396 -132 q 407 -185 407 -168 q 391 -242 407 -218 q 350 -282 375 -267 q 295 -304 325 -297 q 236 -311 265 -311 q 161 -301 196 -311 q 107 -285 126 -292 l 131 -226 q 175 -241 153 -235 q 221 -247 197 -247 q 245 -245 232 -247 q 269 -237 258 -243 q 288 -219 281 -231 q 296 -190 296 -208 q 276 -152 296 -167 q 233 -137 257 -137 q 179 -147 204 -137 l 156 -119 l 243 -6 z "},"è":{"ha":514,"x_min":44,"x_max":468,"o":"m 188 299 l 188 203 q 206 151 188 169 q 257 133 225 133 q 310 157 297 133 q 326 204 324 181 l 468 204 q 453 121 468 160 q 411 54 439 82 q 344 8 383 25 q 257 -8 306 -8 q 144 19 192 -8 q 72 93 97 47 q 51 157 57 121 q 46 236 46 193 l 46 468 q 51 547 46 511 q 72 611 57 583 q 144 685 97 657 q 257 713 192 713 q 345 696 306 713 q 412 649 385 679 q 453 579 439 619 q 468 493 468 539 l 468 299 l 188 299 m 188 410 l 326 410 l 326 490 q 308 551 326 531 q 257 571 289 571 q 206 551 225 571 q 188 490 188 531 l 188 410 m 347 797 l 256 797 l 72 993 l 222 993 l 347 797 z "},"é":{"ha":514,"x_min":44,"x_max":468,"o":"m 188 299 l 188 203 q 206 151 188 169 q 257 133 225 133 q 310 157 297 133 q 326 204 324 181 l 468 204 q 453 121 468 160 q 411 54 439 82 q 344 8 383 25 q 257 -8 306 -8 q 144 19 192 -8 q 72 93 97 47 q 51 157 57 121 q 46 236 46 193 l 46 468 q 51 547 46 511 q 72 611 57 583 q 144 685 97 657 q 257 713 192 713 q 345 696 306 713 q 412 649 385 679 q 453 579 439 619 q 468 493 468 539 l 468 299 l 188 299 m 188 410 l 326 410 l 326 490 q 308 551 326 531 q 257 571 289 571 q 206 551 225 571 q 188 490 188 531 l 188 410 m 292 993 l 442 993 l 258 797 l 167 797 l 292 993 z "},"ê":{"ha":514,"x_min":44,"x_max":468,"o":"m 188 299 l 188 203 q 206 151 188 169 q 257 133 225 133 q 310 157 297 133 q 326 204 324 181 l 468 204 q 453 121 468 160 q 411 54 439 82 q 344 8 383 25 q 257 -8 306 -8 q 144 19 192 -8 q 72 93 97 47 q 51 157 57 121 q 46 236 46 193 l 46 468 q 51 547 46 511 q 72 611 57 583 q 144 685 97 657 q 257 713 192 713 q 345 696 306 713 q 412 649 385 679 q 453 579 439 619 q 468 493 468 539 l 468 299 l 188 299 m 188 410 l 326 410 l 326 490 q 308 551 326 531 q 257 571 289 571 q 206 551 225 571 q 188 490 188 531 l 188 410 m 192 993 l 322 993 l 458 797 l 350 797 l 257 929 l 164 797 l 56 797 l 192 993 z "},"ë":{"ha":514,"x_min":44,"x_max":468,"o":"m 188 299 l 188 203 q 206 151 188 169 q 257 133 225 133 q 310 157 297 133 q 326 204 324 181 l 468 204 q 453 121 468 160 q 411 54 439 82 q 344 8 383 25 q 257 -8 306 -8 q 144 19 192 -8 q 72 93 97 47 q 51 157 57 121 q 46 236 46 193 l 46 468 q 51 547 46 511 q 72 611 57 583 q 144 685 97 657 q 257 713 192 713 q 345 696 306 713 q 412 649 385 679 q 453 579 439 619 q 468 493 468 539 l 468 299 l 188 299 m 188 410 l 326 410 l 326 490 q 308 551 326 531 q 257 571 289 571 q 206 551 225 571 q 188 490 188 531 l 188 410 m 82 956 l 207 956 l 207 814 l 82 814 l 82 956 m 307 956 l 432 956 l 432 814 l 307 814 l 307 956 z "},"ì":{"ha":258,"x_min":-56,"x_max":219,"o":"m 58 704 l 200 704 l 200 0 l 58 0 l 58 704 m 219 797 l 128 797 l -56 993 l 94 993 l 219 797 z "},"í":{"ha":258,"x_min":39,"x_max":314,"o":"m 58 704 l 200 704 l 200 0 l 58 0 l 58 704 m 164 993 l 314 993 l 131 797 l 39 797 l 164 993 z "},"î":{"ha":258,"x_min":-72,"x_max":331,"o":"m 58 704 l 200 704 l 200 0 l 58 0 l 58 704 m 64 993 l 194 993 l 331 797 l 222 797 l 129 929 l 36 797 l -72 797 l 64 993 z "},"ï":{"ha":258,"x_min":-46,"x_max":304,"o":"m 58 704 l 200 704 l 200 0 l 58 0 l 58 704 m -46 956 l 79 956 l 79 814 l -46 814 l -46 956 m 179 956 l 304 956 l 304 814 l 179 814 l 179 956 z "},"ð":{"ha":514,"x_min":44,"x_max":468,"o":"m 188 214 q 206 153 188 174 q 257 133 225 133 q 308 153 289 133 q 326 214 326 174 l 326 490 q 308 551 326 531 q 257 571 289 571 q 206 551 225 571 q 188 490 188 531 l 188 214 m 215 889 q 108 949 175 922 l 224 1010 q 335 944 288 988 l 429 989 l 468 933 l 381 893 q 424 819 407 858 q 450 736 440 779 q 464 650 460 693 q 468 567 468 607 l 468 236 q 463 157 468 193 q 442 93 457 121 q 369 19 417 47 q 257 -8 322 -8 q 144 19 192 -8 q 72 93 97 47 q 51 157 57 121 q 46 236 46 193 l 46 468 q 51 547 46 511 q 72 611 57 583 q 144 685 97 657 q 257 713 192 713 q 294 703 276 713 q 324 681 313 694 l 326 683 q 300 770 315 732 q 261 838 285 808 l 158 789 l 119 844 l 215 889 z "},"ñ":{"ha":540,"x_min":33,"x_max":507,"o":"m 58 704 l 200 704 l 200 636 l 203 636 q 256 691 225 669 q 336 713 288 713 q 389 703 363 713 q 436 674 415 694 q 469 620 457 653 q 482 540 482 588 l 482 0 l 340 0 l 340 488 q 322 549 340 526 q 271 571 304 571 q 215 546 231 571 q 200 474 200 521 l 200 0 l 58 0 l 58 704 m 507 971 q 490 911 500 939 q 464 863 481 883 q 424 829 447 842 q 367 817 400 817 q 322 825 350 817 q 263 844 293 833 l 206 864 q 167 872 179 872 q 122 855 138 872 q 106 810 107 838 l 35 810 q 51 869 40 842 q 78 918 61 897 q 118 951 94 939 q 175 964 142 964 q 219 956 192 964 l 279 936 q 337 917 310 925 q 375 908 364 908 q 419 926 404 908 q 436 971 435 943 l 507 971 z "},"ò":{"ha":514,"x_min":44,"x_max":469,"o":"m 46 468 q 51 547 46 511 q 72 611 57 583 q 144 685 97 657 q 257 713 192 713 q 369 685 322 713 q 442 611 417 657 q 463 547 457 583 q 468 468 468 511 l 468 236 q 463 157 468 193 q 442 93 457 121 q 369 19 417 47 q 257 -8 322 -8 q 144 19 192 -8 q 72 93 97 47 q 51 157 57 121 q 46 236 46 193 l 46 468 m 188 214 q 206 153 188 174 q 257 133 225 133 q 308 153 289 133 q 326 214 326 174 l 326 490 q 308 551 326 531 q 257 571 289 571 q 206 551 225 571 q 188 490 188 531 l 188 214 m 347 797 l 256 797 l 72 993 l 222 993 l 347 797 z "},"ó":{"ha":514,"x_min":44,"x_max":469,"o":"m 46 468 q 51 547 46 511 q 72 611 57 583 q 144 685 97 657 q 257 713 192 713 q 369 685 322 713 q 442 611 417 657 q 463 547 457 583 q 468 468 468 511 l 468 236 q 463 157 468 193 q 442 93 457 121 q 369 19 417 47 q 257 -8 322 -8 q 144 19 192 -8 q 72 93 97 47 q 51 157 57 121 q 46 236 46 193 l 46 468 m 188 214 q 206 153 188 174 q 257 133 225 133 q 308 153 289 133 q 326 214 326 174 l 326 490 q 308 551 326 531 q 257 571 289 571 q 206 551 225 571 q 188 490 188 531 l 188 214 m 292 993 l 442 993 l 258 797 l 167 797 l 292 993 z "},"ô":{"ha":514,"x_min":44,"x_max":469,"o":"m 46 468 q 51 547 46 511 q 72 611 57 583 q 144 685 97 657 q 257 713 192 713 q 369 685 322 713 q 442 611 417 657 q 463 547 457 583 q 468 468 468 511 l 468 236 q 463 157 468 193 q 442 93 457 121 q 369 19 417 47 q 257 -8 322 -8 q 144 19 192 -8 q 72 93 97 47 q 51 157 57 121 q 46 236 46 193 l 46 468 m 188 214 q 206 153 188 174 q 257 133 225 133 q 308 153 289 133 q 326 214 326 174 l 326 490 q 308 551 326 531 q 257 571 289 571 q 206 551 225 571 q 188 490 188 531 l 188 214 m 192 993 l 322 993 l 458 797 l 350 797 l 257 929 l 164 797 l 56 797 l 192 993 z "},"õ":{"ha":514,"x_min":21,"x_max":493,"o":"m 46 468 q 51 547 46 511 q 72 611 57 583 q 144 685 97 657 q 257 713 192 713 q 369 685 322 713 q 442 611 417 657 q 463 547 457 583 q 468 468 468 511 l 468 236 q 463 157 468 193 q 442 93 457 121 q 369 19 417 47 q 257 -8 322 -8 q 144 19 192 -8 q 72 93 97 47 q 51 157 57 121 q 46 236 46 193 l 46 468 m 188 214 q 206 153 188 174 q 257 133 225 133 q 308 153 289 133 q 326 214 326 174 l 326 490 q 308 551 326 531 q 257 571 289 571 q 206 551 225 571 q 188 490 188 531 l 188 214 m 493 971 q 476 911 486 939 q 450 863 467 883 q 410 829 433 842 q 353 817 386 817 q 308 825 336 817 q 249 844 279 833 l 192 864 q 153 872 165 872 q 108 855 124 872 q 92 810 93 838 l 21 810 q 37 869 26 842 q 64 918 47 897 q 104 951 81 939 q 161 964 128 964 q 206 956 178 964 l 265 936 q 323 917 296 925 q 361 908 350 908 q 406 926 390 908 q 422 971 421 943 l 493 971 z "},"ö":{"ha":514,"x_min":44,"x_max":469,"o":"m 46 468 q 51 547 46 511 q 72 611 57 583 q 144 685 97 657 q 257 713 192 713 q 369 685 322 713 q 442 611 417 657 q 463 547 457 583 q 468 468 468 511 l 468 236 q 463 157 468 193 q 442 93 457 121 q 369 19 417 47 q 257 -8 322 -8 q 144 19 192 -8 q 72 93 97 47 q 51 157 57 121 q 46 236 46 193 l 46 468 m 188 214 q 206 153 188 174 q 257 133 225 133 q 308 153 289 133 q 326 214 326 174 l 326 490 q 308 551 326 531 q 257 571 289 571 q 206 551 225 571 q 188 490 188 531 l 188 214 m 82 956 l 207 956 l 207 814 l 82 814 l 82 956 m 307 956 l 432 956 l 432 814 l 307 814 l 307 956 z "},"÷":{"ha":833,"x_min":65,"x_max":768,"o":"m 65 407 l 768 407 l 768 296 l 65 296 l 65 407 m 354 1 q 341 15 354 1 q 328 64 328 28 q 354 126 328 100 q 417 153 381 153 q 479 126 453 153 q 506 64 506 100 q 479 1 506 28 q 417 -25 453 -25 q 354 1 381 -25 m 354 576 q 341 590 354 576 q 328 639 328 603 q 354 701 328 675 q 417 728 381 728 q 479 701 453 728 q 506 639 506 675 q 479 576 506 603 q 417 550 453 550 q 354 576 381 550 z "},"ø":{"ha":514,"x_min":6,"x_max":508,"o":"m 322 517 q 257 571 314 571 q 206 551 225 571 q 188 490 188 531 l 188 290 l 190 290 l 322 517 m 192 188 q 257 133 200 133 q 308 153 289 133 q 326 214 326 174 l 326 414 l 324 414 l 192 188 m 74 99 q 46 219 46 154 l 46 485 q 60 576 46 535 q 102 648 75 618 q 169 695 129 678 q 257 713 208 713 q 404 654 349 713 l 461 750 l 508 721 l 440 606 q 468 485 468 550 l 468 219 q 453 128 468 169 q 412 56 439 86 q 345 9 385 26 q 257 -8 306 -8 q 110 50 165 -8 l 53 -46 l 6 -17 l 74 99 z "},"ù":{"ha":540,"x_min":58,"x_max":482,"o":"m 482 0 l 340 0 l 340 68 l 338 68 q 284 13 315 35 q 204 -8 253 -8 q 151 1 178 -8 q 104 31 125 10 q 71 84 83 51 q 58 164 58 117 l 58 704 l 200 704 l 200 217 q 218 156 200 178 q 269 133 236 133 q 325 158 310 133 q 340 231 340 183 l 340 704 l 482 704 l 482 0 m 361 797 l 269 797 l 86 993 l 236 993 l 361 797 z "},"ú":{"ha":540,"x_min":58,"x_max":482,"o":"m 482 0 l 340 0 l 340 68 l 338 68 q 284 13 315 35 q 204 -8 253 -8 q 151 1 178 -8 q 104 31 125 10 q 71 84 83 51 q 58 164 58 117 l 58 704 l 200 704 l 200 217 q 218 156 200 178 q 269 133 236 133 q 325 158 310 133 q 340 231 340 183 l 340 704 l 482 704 l 482 0 m 306 993 l 456 993 l 272 797 l 181 797 l 306 993 z "},"û":{"ha":540,"x_min":58,"x_max":482,"o":"m 482 0 l 340 0 l 340 68 l 338 68 q 284 13 315 35 q 204 -8 253 -8 q 151 1 178 -8 q 104 31 125 10 q 71 84 83 51 q 58 164 58 117 l 58 704 l 200 704 l 200 217 q 218 156 200 178 q 269 133 236 133 q 325 158 310 133 q 340 231 340 183 l 340 704 l 482 704 l 482 0 m 206 993 l 336 993 l 472 797 l 364 797 l 271 929 l 178 797 l 69 797 l 206 993 z "},"ü":{"ha":540,"x_min":58,"x_max":482,"o":"m 482 0 l 340 0 l 340 68 l 338 68 q 284 13 315 35 q 204 -8 253 -8 q 151 1 178 -8 q 104 31 125 10 q 71 84 83 51 q 58 164 58 117 l 58 704 l 200 704 l 200 217 q 218 156 200 178 q 269 133 236 133 q 325 158 310 133 q 340 231 340 183 l 340 704 l 482 704 l 482 0 m 96 956 l 221 956 l 221 814 l 96 814 l 96 956 m 321 956 l 446 956 l 446 814 l 321 814 l 321 956 z "},"ý":{"ha":489,"x_min":-1,"x_max":490,"o":"m 149 704 l 246 265 l 249 265 l 344 704 l 490 704 l 288 -122 q 256 -201 276 -169 q 210 -251 236 -232 q 153 -277 183 -269 q 92 -285 124 -285 l 53 -285 l 53 -151 l 85 -151 q 121 -146 106 -151 q 148 -122 136 -140 q 169 -66 160 -103 q 192 32 179 -29 l -1 704 l 149 704 m 279 993 l 429 993 l 246 797 l 154 797 l 279 993 z "},"þ":{"ha":540,"x_min":58,"x_max":483,"o":"m 58 989 l 200 989 l 200 640 q 254 692 226 671 q 335 713 282 713 q 458 646 422 713 q 476 588 471 622 q 482 494 482 553 l 482 226 q 478 114 482 150 q 460 56 474 78 q 413 10 442 28 q 333 -8 385 -8 q 259 10 292 -8 q 203 64 226 29 l 200 64 l 200 -285 l 58 -285 l 58 989 m 340 475 q 324 544 340 518 q 271 571 307 571 q 219 547 239 571 q 200 483 200 522 l 200 210 q 220 155 200 176 q 271 133 240 133 q 326 158 311 133 q 340 217 340 183 l 340 475 z "},"ÿ":{"ha":489,"x_min":-1,"x_max":490,"o":"m 149 704 l 246 265 l 249 265 l 344 704 l 490 704 l 288 -122 q 256 -201 276 -169 q 210 -251 236 -232 q 153 -277 183 -269 q 92 -285 124 -285 l 53 -285 l 53 -151 l 85 -151 q 121 -146 106 -151 q 148 -122 136 -140 q 169 -66 160 -103 q 192 32 179 -29 l -1 704 l 149 704 m 69 956 l 194 956 l 194 814 l 69 814 l 69 956 m 294 956 l 419 956 l 419 814 l 294 814 l 294 956 z "},"ı":{"ha":258,"x_min":58,"x_max":200,"o":"m 58 704 l 200 704 l 200 0 l 58 0 l 58 704 z "},"Ł":{"ha":514,"x_min":0,"x_max":489,"o":"m 67 368 l 0 315 l 0 440 l 67 493 l 67 989 l 208 989 l 208 604 l 375 738 l 375 613 l 208 479 l 208 142 l 489 142 l 489 0 l 67 0 l 67 368 z "},"ł":{"ha":258,"x_min":-19,"x_max":261,"o":"m 50 428 l -19 367 l -19 467 l 50 528 l 50 989 l 192 989 l 192 653 l 261 713 l 261 613 l 192 553 l 192 199 q 206 144 192 158 q 261 125 221 129 l 261 -8 q 173 -1 213 -8 q 106 28 133 7 q 65 89 79 50 q 50 189 50 128 l 50 428 z "},"Œ":{"ha":847,"x_min":67,"x_max":824,"o":"m 400 769 q 374 842 400 811 q 304 872 349 872 q 234 842 260 872 q 208 769 208 811 l 208 219 q 234 147 208 178 q 304 117 260 117 q 374 147 349 117 q 400 219 400 178 l 400 769 m 822 856 l 542 856 l 542 565 l 786 565 l 786 432 l 542 432 l 542 142 l 822 142 l 822 0 l 400 0 l 400 47 l 397 47 q 347 8 379 24 q 279 -8 314 -8 q 190 10 229 -8 q 123 62 150 29 q 81 137 96 94 q 67 226 67 179 l 67 763 q 81 852 67 810 q 123 926 96 894 q 190 978 150 958 q 279 997 229 997 q 353 980 325 997 q 397 939 382 963 l 400 939 l 400 989 l 822 989 l 822 856 z "},"œ":{"ha":794,"x_min":44,"x_max":750,"o":"m 46 468 q 51 547 46 511 q 72 611 57 583 q 144 685 97 657 q 257 713 192 713 q 338 699 301 713 q 397 665 374 685 q 461 701 425 689 q 538 713 497 713 q 626 696 586 713 q 692 649 665 679 q 734 579 719 619 q 749 493 749 539 l 749 299 l 468 299 l 468 203 q 487 151 468 169 q 538 133 506 133 q 591 157 578 133 q 607 204 604 181 l 749 204 q 734 121 749 160 q 692 54 719 82 q 625 8 664 25 q 538 -8 586 -8 q 457 3 499 -8 q 392 40 415 15 q 333 5 368 18 q 257 -8 297 -8 q 144 19 192 -8 q 72 93 97 47 q 51 157 57 121 q 46 236 46 193 l 46 468 m 468 410 l 607 410 l 607 490 q 588 551 607 531 q 538 571 569 571 q 487 551 506 571 q 468 490 468 531 l 468 410 m 188 214 q 206 153 188 174 q 257 133 225 133 q 308 153 289 133 q 326 214 326 174 l 326 490 q 308 551 326 531 q 257 571 289 571 q 206 551 225 571 q 188 490 188 531 l 188 214 z "},"Š":{"ha":564,"x_min":39,"x_max":526,"o":"m 525 704 l 383 704 l 383 736 q 360 820 383 785 q 283 856 338 856 q 235 844 254 856 q 206 816 217 833 q 192 776 196 799 q 188 728 188 753 q 190 678 188 699 q 200 644 192 658 q 224 618 208 629 q 268 596 240 607 l 376 553 q 453 510 424 535 q 498 453 482 486 q 519 378 514 421 q 525 282 525 336 q 513 166 525 219 q 472 74 500 113 q 396 14 443 36 q 281 -8 349 -8 q 185 10 229 -8 q 108 59 140 28 q 58 133 76 90 q 39 226 39 176 l 39 279 l 181 279 l 181 235 q 203 165 181 196 q 281 133 226 133 q 337 144 317 133 q 367 173 357 154 q 381 219 378 192 q 383 281 383 247 q 381 344 383 319 q 369 385 378 369 q 344 410 360 400 q 301 431 328 419 l 200 472 q 77 572 108 510 q 46 726 46 633 q 61 832 46 782 q 106 918 76 882 q 182 976 136 954 q 289 997 228 997 q 385 978 342 997 q 460 926 429 958 q 508 855 492 894 q 525 774 525 815 l 525 704 m 347 1033 l 217 1033 l 81 1229 l 189 1229 l 282 1097 l 375 1229 l 483 1229 l 347 1033 z "},"š":{"ha":489,"x_min":32,"x_max":456,"o":"m 315 507 q 292 561 314 543 q 243 579 271 579 q 192 558 210 579 q 174 508 174 536 q 183 470 174 489 q 233 436 193 451 l 317 403 q 426 319 396 372 q 456 204 456 267 q 440 122 456 160 q 396 54 424 83 q 329 8 368 25 q 244 -8 290 -8 q 165 6 203 -8 q 99 46 128 19 q 53 112 71 72 q 33 204 35 151 l 167 204 q 187 150 171 175 q 243 125 203 125 q 298 145 274 125 q 322 201 322 165 q 307 251 322 231 q 251 288 292 272 l 183 313 q 78 387 117 338 q 40 507 40 436 q 57 590 40 551 q 102 655 74 628 q 168 697 131 682 q 249 713 206 713 q 328 697 292 713 q 392 653 365 681 q 433 588 418 626 q 449 507 449 550 l 315 507 m 310 797 l 179 797 l 43 993 l 151 993 l 244 861 l 338 993 l 446 993 l 310 797 z "},"Ÿ":{"ha":539,"x_min":4,"x_max":535,"o":"m 199 418 l 4 989 l 154 989 l 268 596 l 271 596 l 385 989 l 535 989 l 340 418 l 340 0 l 199 0 l 199 418 m 94 1192 l 219 1192 l 219 1050 l 94 1050 l 94 1192 m 319 1192 l 444 1192 l 444 1050 l 319 1050 l 319 1192 z "},"Ž":{"ha":463,"x_min":21,"x_max":442,"o":"m 21 125 l 288 856 l 35 856 l 35 989 l 442 989 l 442 876 l 169 133 l 442 133 l 442 0 l 21 0 l 21 125 m 297 1033 l 167 1033 l 31 1229 l 139 1229 l 232 1097 l 325 1229 l 433 1229 l 297 1033 z "},"ž":{"ha":438,"x_min":18,"x_max":421,"o":"m 24 113 l 253 579 l 42 579 l 42 704 l 414 704 l 414 592 l 185 133 l 414 133 l 414 0 l 24 0 l 24 113 m 285 797 l 154 797 l 18 993 l 126 993 l 219 861 l 313 993 l 421 993 l 285 797 z "},"ƒ":{"ha":517,"x_min":-83,"x_max":510,"o":"m 78 626 l 194 626 l 226 804 q 256 901 238 864 q 300 960 275 939 q 356 990 325 982 q 419 997 386 997 q 460 996 439 997 q 508 992 481 994 l 489 864 l 463 869 q 435 872 449 872 q 381 851 399 872 q 353 769 363 829 l 328 626 l 435 626 l 417 515 l 308 515 l 210 -37 q 185 -135 200 -90 q 146 -212 171 -181 q 83 -262 121 -244 q -10 -281 46 -281 q -49 -278 -33 -281 q -83 -269 -65 -275 l -68 -139 q -12 -147 -43 -147 q 43 -125 24 -147 q 69 -64 63 -103 l 174 515 l 63 515 l 78 626 z "},"ˆ":{"ha":258,"x_min":-72,"x_max":331,"o":"m 64 993 l 194 993 l 331 797 l 222 797 l 129 929 l 36 797 l -72 797 l 64 993 z "},"ˇ":{"ha":258,"x_min":-72,"x_max":331,"o":"m 194 797 l 64 797 l -72 993 l 36 993 l 129 861 l 222 993 l 331 993 l 194 797 z "},"ˉ":{"ha":258,"x_min":-61,"x_max":319,"o":"m -61 926 l 319 926 l 319 843 l -61 843 l -61 926 z "},"˘":{"ha":258,"x_min":-86,"x_max":343,"o":"m 343 993 q 129 804 314 804 q -85 993 -56 804 l -14 993 q -3 955 -11 974 q 21 921 4 936 q 64 897 38 906 q 129 888 90 888 q 194 897 168 888 q 238 921 221 906 q 262 955 254 936 q 272 993 269 974 l 343 993 z "},"˙":{"ha":258,"x_min":67,"x_max":192,"o":"m 67 956 l 192 956 l 192 814 l 67 814 l 67 956 z "},"˚":{"ha":258,"x_min":-12,"x_max":271,"o":"m -1 862 q -7 875 -1 862 q -12 917 -12 888 q -1 972 -12 946 q 29 1017 10 997 q 74 1047 49 1036 q 129 1058 100 1058 q 184 1047 158 1058 q 229 1017 210 1036 q 260 972 249 997 q 271 917 271 946 q 260 862 271 888 q 229 817 249 836 q 184 786 210 797 q 129 775 158 775 q 74 786 100 775 q 29 817 49 797 q -1 862 10 836 m 69 977 q 57 965 69 977 q 44 917 44 953 q 69 856 44 881 q 129 832 93 832 q 190 856 165 832 q 214 917 214 881 q 190 977 214 953 q 129 1001 165 1001 q 69 977 93 1001 z "},"˛":{"ha":258,"x_min":-1,"x_max":271,"o":"m 271 -281 q 216 -301 250 -292 q 136 -311 182 -311 q 38 -277 78 -311 q -1 -185 -1 -243 q 8 -125 -1 -151 q 36 -77 18 -99 q 77 -37 54 -56 q 128 0 100 -19 l 199 0 q 133 -86 157 -40 q 110 -175 110 -132 q 130 -228 110 -208 q 178 -247 150 -247 q 219 -242 201 -247 q 251 -229 236 -237 l 271 -281 z "},"˜":{"ha":258,"x_min":-107,"x_max":365,"o":"m 365 971 q 349 911 358 939 q 322 863 339 883 q 282 829 306 842 q 225 817 258 817 q 180 825 208 817 q 121 844 151 833 l 64 864 q 25 872 38 872 q -19 855 -4 872 q -36 810 -35 838 l -107 810 q -91 869 -101 842 q -64 918 -81 897 q -24 951 -47 939 q 33 964 0 964 q 78 956 50 964 l 138 936 q 195 917 168 925 q 233 908 222 908 q 278 926 263 908 q 294 971 293 943 l 365 971 z "},"˝":{"ha":258,"x_min":-75,"x_max":425,"o":"m 50 993 l 200 993 l 17 797 l -75 797 l 50 993 m 275 993 l 425 993 l 242 797 l 150 797 l 275 993 z "},"Ω":{"ha":632,"x_min":31,"x_max":596,"o":"m 153 128 q 78 304 110 199 q 46 540 46 410 q 65 717 46 636 q 121 858 85 799 q 208 951 157 917 q 321 985 258 985 q 438 947 389 985 q 519 847 488 908 q 567 708 551 785 q 582 554 582 631 q 573 425 582 488 q 549 307 564 363 q 514 206 533 251 q 474 128 494 161 l 474 124 l 596 124 l 596 0 l 357 0 l 357 88 q 419 242 392 132 q 446 515 446 351 q 439 640 446 579 q 417 749 432 701 q 376 824 401 796 q 317 853 351 853 q 258 828 283 853 q 215 757 232 803 q 190 649 199 711 q 181 511 181 586 q 188 369 181 436 q 208 246 196 301 q 237 150 221 190 q 269 88 253 110 l 269 0 l 31 0 l 31 124 l 153 124 l 153 128 z "},"μ":{"ha":540,"x_min":58,"x_max":482,"o":"m 482 0 l 340 0 l 340 68 l 338 68 q 316 34 328 49 q 293 10 304 19 q 246 -8 269 -8 q 203 6 217 -8 l 200 6 l 200 -285 l 58 -285 l 58 704 l 200 704 l 200 217 q 218 156 200 178 q 269 133 236 133 q 325 158 310 133 q 340 231 340 183 l 340 704 l 482 704 l 482 0 z "},"π":{"ha":586,"x_min":10,"x_max":568,"o":"m 496 597 l 496 178 q 499 70 496 111 q 508 0 501 29 l 382 0 q 364 179 364 44 l 364 597 l 242 597 q 234 466 239 543 q 222 307 229 389 q 202 144 214 225 q 176 0 190 63 l 50 0 q 75 145 64 65 q 94 306 86 225 q 106 463 101 388 q 111 597 111 539 q 58 594 76 597 q 26 588 39 592 l 10 688 q 69 717 29 704 q 172 729 110 729 l 568 729 l 560 597 l 496 597 z "},"–":{"ha":694,"x_min":0,"x_max":694,"o":"m 0 451 l 694 451 l 694 318 l 0 318 l 0 451 z "},"—":{"ha":1389,"x_min":0,"x_max":1389,"o":"m 0 451 l 1389 451 l 1389 318 l 0 318 l 0 451 z "},"‘":{"ha":258,"x_min":58,"x_max":200,"o":"m 200 744 l 58 744 l 58 886 l 200 989 l 200 744 z "},"’":{"ha":258,"x_min":58,"x_max":200,"o":"m 58 989 l 200 989 l 200 847 l 58 744 l 58 989 z "},"‚":{"ha":258,"x_min":58,"x_max":200,"o":"m 58 142 l 200 142 l 200 0 l 58 -103 l 58 142 z "},"“":{"ha":386,"x_min":25,"x_max":361,"o":"m 361 744 l 219 744 l 219 886 l 361 989 l 361 744 m 167 744 l 25 744 l 25 886 l 167 989 l 167 744 z "},"”":{"ha":386,"x_min":25,"x_max":361,"o":"m 25 989 l 167 989 l 167 847 l 25 744 l 25 989 m 219 989 l 361 989 l 361 847 l 219 744 l 219 989 z "},"„":{"ha":386,"x_min":25,"x_max":361,"o":"m 25 142 l 167 142 l 167 0 l 25 -103 l 25 142 m 219 142 l 361 142 l 361 0 l 219 -103 l 219 142 z "},"†":{"ha":514,"x_min":8,"x_max":506,"o":"m 194 550 l 8 550 l 8 675 l 194 675 l 194 989 l 319 989 l 319 675 l 506 675 l 506 550 l 319 550 l 319 -285 l 194 -285 l 194 550 z "},"‡":{"ha":514,"x_min":8,"x_max":506,"o":"m 194 989 l 319 989 l 319 686 l 506 686 l 506 575 l 319 575 l 319 129 l 506 129 l 506 18 l 319 18 l 319 -285 l 194 -285 l 194 18 l 8 18 l 8 129 l 194 129 l 194 575 l 8 575 l 8 686 l 194 686 l 194 989 z "},"•":{"ha":694,"x_min":100,"x_max":596,"o":"m 119 398 q 110 420 119 398 q 100 494 100 443 q 119 591 100 546 q 172 669 139 636 q 251 722 206 703 q 347 742 296 742 q 444 722 399 742 q 522 669 489 703 q 575 591 556 636 q 594 494 594 546 q 575 398 594 443 q 522 319 556 353 q 444 267 489 286 q 347 247 399 247 q 251 267 296 247 q 172 319 206 286 q 119 398 139 353 z "},"…":{"ha":1389,"x_min":161,"x_max":1228,"o":"m 161 142 l 303 142 l 303 0 l 161 0 l 161 142 m 624 142 l 765 142 l 765 0 l 624 0 l 624 142 m 1086 142 l 1228 142 l 1228 0 l 1086 0 l 1086 142 z "},"‰":{"ha":746,"x_min":13,"x_max":733,"o":"m 581 111 q 591 85 581 96 q 615 75 601 75 q 640 85 629 75 q 650 111 650 96 l 650 182 q 640 208 650 197 q 615 218 629 218 q 591 208 601 218 q 581 182 581 197 l 581 111 m 497 188 q 529 271 497 240 q 615 301 561 301 q 701 271 669 301 q 733 188 733 240 l 733 97 q 701 21 733 50 q 615 -8 669 -8 q 529 21 561 -8 q 497 97 497 50 l 497 188 m 96 807 q 106 781 96 792 q 131 771 117 771 q 155 781 144 771 q 165 807 165 792 l 165 878 q 155 903 165 893 q 131 914 144 914 q 106 903 117 914 q 96 878 96 893 l 96 807 m 13 883 q 44 967 13 936 q 131 997 76 997 q 217 967 185 997 q 249 883 249 936 l 249 793 q 217 717 249 746 q 131 688 185 688 q 44 717 76 688 q 13 793 13 746 l 13 883 m 313 111 q 323 85 313 96 q 347 75 333 75 q 372 85 361 75 q 382 111 382 96 l 382 182 q 372 208 382 197 q 347 218 361 218 q 323 208 333 218 q 313 182 313 197 l 313 111 m 229 188 q 261 271 229 240 q 347 301 293 301 q 433 271 401 301 q 465 188 465 240 l 465 97 q 433 21 465 50 q 347 -8 401 -8 q 261 21 293 -8 q 229 97 229 50 l 229 188 m 367 989 l 458 989 l 119 0 l 28 0 l 367 989 z "},"‹":{"ha":335,"x_min":14,"x_max":296,"o":"m 296 524 l 156 385 l 296 246 l 296 104 l 14 385 l 296 665 l 296 524 z "},"›":{"ha":335,"x_min":39,"x_max":321,"o":"m 39 246 l 179 385 l 39 524 l 39 665 l 321 385 l 39 104 l 39 246 z "},"⁄":{"ha":232,"x_min":-229,"x_max":461,"o":"m 378 1013 l 461 1013 l -146 -24 l -229 -24 l 378 1013 z "},"€":{"ha":517,"x_min":22,"x_max":474,"o":"m 474 832 q 434 857 458 847 q 368 867 410 867 q 279 815 310 867 q 242 651 249 763 l 440 651 l 413 543 l 235 543 l 235 497 l 235 450 l 389 450 l 361 340 l 242 340 q 281 172 249 222 q 368 121 313 121 q 434 130 410 121 q 474 154 458 139 l 474 19 q 428 1 460 8 q 342 -7 396 -7 q 181 73 242 -7 q 106 340 121 153 l 22 340 l 50 450 l 94 450 q 93 472 93 460 l 93 497 l 93 519 q 94 543 93 531 l 22 543 l 50 651 l 103 651 q 177 912 117 828 q 343 996 238 996 q 426 985 393 996 q 474 964 460 975 l 474 832 z "},"ℓ":{"ha":497,"x_min":22,"x_max":483,"o":"m 483 158 q 399 35 449 72 q 292 -3 350 -3 q 202 17 238 -3 q 145 71 167 38 q 115 149 124 104 q 107 243 107 193 l 107 264 l 81 236 l 53 208 l 22 286 l 68 335 q 107 383 88 357 l 107 751 q 122 897 107 836 q 161 998 136 958 q 219 1056 186 1038 q 289 1075 253 1075 q 385 1013 354 1075 q 417 844 417 950 q 368 608 417 726 q 236 376 319 489 l 236 293 q 258 151 236 193 q 319 110 279 110 q 383 143 356 110 q 432 215 411 176 l 483 158 m 236 519 q 315 690 285 601 q 346 857 346 778 q 334 938 346 913 q 294 964 322 964 q 273 953 283 964 q 254 914 263 942 q 241 840 246 886 q 236 724 236 793 l 236 519 z "},"™":{"ha":1375,"x_min":54,"x_max":1218,"o":"m 231 897 l 54 897 l 54 989 l 507 989 l 507 897 l 331 897 l 331 417 l 231 417 l 231 897 m 1118 897 l 1115 897 l 925 417 l 868 417 l 679 897 l 676 897 l 676 417 l 576 417 l 576 989 l 735 989 l 897 571 l 1060 989 l 1218 989 l 1218 417 l 1118 417 l 1118 897 z "},"Ω":{"ha":632,"x_min":31,"x_max":596,"o":"m 153 128 q 78 304 110 199 q 46 540 46 410 q 65 717 46 636 q 121 858 85 799 q 208 951 157 917 q 321 985 258 985 q 438 947 389 985 q 519 847 488 908 q 567 708 551 785 q 582 554 582 631 q 573 425 582 488 q 549 307 564 363 q 514 206 533 251 q 474 128 494 161 l 474 124 l 596 124 l 596 0 l 357 0 l 357 88 q 419 242 392 132 q 446 515 446 351 q 439 640 446 579 q 417 749 432 701 q 376 824 401 796 q 317 853 351 853 q 258 828 283 853 q 215 757 232 803 q 190 649 199 711 q 181 511 181 586 q 188 369 181 436 q 208 246 196 301 q 237 150 221 190 q 269 88 253 110 l 269 0 l 31 0 l 31 124 l 153 124 l 153 128 z "},"℮":{"ha":1213,"x_min":46,"x_max":1164,"o":"m 260 481 q 253 475 253 481 l 253 201 q 264 169 253 183 q 418 61 331 101 q 606 21 506 21 q 807 66 714 21 q 967 188 900 111 l 1046 188 q 856 46 971 99 q 604 -7 740 -7 q 388 33 489 -7 q 210 140 286 72 q 91 298 135 207 q 47 493 47 389 q 91 690 47 597 q 210 850 135 782 q 388 958 286 918 q 604 997 489 997 q 822 958 721 997 q 1000 850 924 918 q 1120 690 1076 782 q 1164 493 1164 597 l 1164 481 l 260 481 m 958 792 q 946 824 958 811 q 792 928 879 889 q 606 967 706 967 q 419 926 506 967 q 265 819 332 886 q 253 785 253 807 l 253 517 q 260 507 253 507 l 953 507 q 958 517 958 507 l 958 792 z "},"∂":{"ha":569,"x_min":44,"x_max":518,"o":"m 75 1036 q 142 1083 101 1060 q 249 1107 183 1107 q 347 1079 299 1107 q 432 990 394 1051 q 493 829 469 928 q 517 589 517 731 q 446 147 517 294 q 243 0 375 0 q 159 25 196 0 q 97 94 122 50 q 58 195 71 138 q 44 318 44 253 q 63 476 44 407 q 113 592 82 544 q 183 664 143 639 q 264 689 222 689 q 342 664 313 689 q 385 614 372 639 l 386 614 l 386 654 q 375 775 386 717 q 344 879 364 833 q 295 953 324 925 q 231 981 267 981 q 161 960 190 981 q 110 915 132 940 l 75 1036 m 258 129 q 306 159 285 129 q 341 238 326 189 q 365 348 356 286 q 378 474 375 410 q 347 535 369 506 q 286 565 324 565 q 241 544 261 565 q 207 486 221 522 q 185 403 193 450 q 178 308 178 357 q 198 178 178 226 q 256 129 218 129 l 258 129 z "},"∆":{"ha":626,"x_min":31,"x_max":594,"o":"m 31 89 l 242 989 l 396 989 l 594 93 l 594 0 l 31 0 l 31 89 m 461 119 l 368 531 q 356 594 363 561 l 339 663 q 326 727 332 696 q 315 782 319 758 l 314 782 q 290 673 307 736 q 263 546 274 610 l 163 119 l 461 119 z "},"∏":{"ha":713,"x_min":32,"x_max":679,"o":"m 590 832 l 590 -135 l 456 -135 l 456 832 l 256 832 l 256 -135 l 121 -135 l 121 832 l 32 832 l 32 971 l 679 971 l 679 832 l 590 832 z "},"∑":{"ha":543,"x_min":29,"x_max":522,"o":"m 29 -135 l 29 -31 l 265 422 l 35 864 l 35 971 l 504 971 l 504 849 l 206 849 l 206 844 l 413 454 l 176 13 l 176 8 l 522 8 l 522 -135 l 29 -135 z "},"−":{"ha":833,"x_min":65,"x_max":768,"o":"m 65 407 l 768 407 l 768 296 l 65 296 l 65 407 z "},"∕":{"ha":232,"x_min":-229,"x_max":461,"o":"m 378 1013 l 461 1013 l -146 -24 l -229 -24 l 378 1013 z "},"∙":{"ha":258,"x_min":39,"x_max":219,"o":"m 67 351 q 53 365 67 351 q 40 414 40 378 q 67 476 40 450 q 129 503 93 503 q 192 476 165 503 q 218 414 218 450 q 192 351 218 378 q 129 325 165 325 q 67 351 93 325 z "},"√":{"ha":610,"x_min":38,"x_max":601,"o":"m 385 -190 l 276 -190 l 133 425 l 58 396 l 38 483 l 219 554 l 308 146 q 321 69 315 107 q 329 11 326 32 l 331 10 q 336 70 333 31 q 346 150 339 110 l 511 1169 l 601 1169 l 385 -190 z "},"∞":{"ha":882,"x_min":51,"x_max":831,"o":"m 829 401 q 814 317 829 354 q 773 255 799 281 q 714 215 747 229 q 646 201 681 201 q 547 227 594 201 q 444 329 500 253 q 351 238 400 274 q 232 201 301 201 q 164 215 196 201 q 107 255 132 229 q 67 317 82 281 q 53 396 53 353 q 67 476 53 439 q 106 539 81 513 q 165 580 131 565 q 242 594 200 594 q 353 560 306 594 q 444 468 400 526 l 482 510 q 527 551 503 532 q 582 582 551 569 q 651 594 613 594 q 722 581 689 594 q 778 542 754 567 q 815 481 801 517 q 829 403 829 446 l 829 401 m 244 281 q 328 315 292 281 q 400 392 364 349 l 364 439 q 328 478 347 461 q 288 505 310 494 q 239 515 267 515 q 161 481 188 515 q 135 394 135 446 q 167 313 135 346 q 243 281 199 281 l 244 281 m 643 515 q 594 503 617 515 q 552 473 572 490 q 516 435 532 456 q 486 400 500 415 q 531 345 511 368 q 569 308 551 322 q 606 287 588 293 q 649 281 625 281 q 690 292 672 281 q 721 319 708 303 q 740 356 733 336 q 747 396 747 376 q 719 482 747 449 q 644 515 692 515 l 643 515 z "},"∫":{"ha":454,"x_min":39,"x_max":411,"o":"m 396 1078 q 381 1085 389 1082 q 363 1088 374 1088 q 313 1051 332 1088 q 290 966 296 1024 q 285 815 285 908 q 287 649 285 731 q 292 484 289 567 q 297 315 294 401 q 299 138 299 229 q 289 -35 299 33 q 258 -146 279 -103 q 197 -215 236 -194 q 115 -235 157 -235 q 69 -229 89 -235 q 39 -217 50 -224 l 58 -106 q 74 -112 65 -108 q 97 -117 83 -117 q 122 -110 110 -117 q 142 -87 133 -103 q 159 -13 153 -64 q 165 132 165 38 q 163 313 165 225 q 158 485 161 400 q 153 654 156 569 q 151 826 151 739 q 155 935 151 888 q 166 1019 158 982 q 186 1083 174 1056 q 215 1135 199 1111 q 274 1181 238 1164 q 347 1197 310 1197 q 383 1194 367 1197 q 411 1185 400 1190 l 396 1078 z "},"≈":{"ha":557,"x_min":38,"x_max":517,"o":"m 517 547 q 461 457 497 494 q 376 419 425 419 q 324 430 349 419 q 265 464 300 440 q 220 494 239 483 q 178 506 201 506 q 126 478 144 506 q 90 419 107 451 l 39 460 q 98 550 60 514 q 186 586 136 586 q 253 569 226 586 l 297 543 l 342 514 q 382 501 363 501 q 429 526 411 501 q 465 588 447 551 l 517 547 m 517 336 q 461 246 497 283 q 376 208 425 208 q 324 219 349 208 q 265 253 300 229 q 220 283 239 272 q 178 294 201 294 q 125 267 144 294 q 90 208 106 240 l 39 247 q 98 338 60 303 q 186 374 136 374 q 253 358 226 374 l 297 332 l 343 303 q 382 289 363 289 q 429 315 411 289 q 465 376 447 340 l 517 336 z "},"≠":{"ha":557,"x_min":51,"x_max":504,"o":"m 372 556 l 504 556 l 504 469 l 346 469 l 285 315 l 504 315 l 504 231 l 257 231 l 210 111 l 146 132 l 185 231 l 51 231 l 51 315 l 213 315 l 272 469 l 51 469 l 51 556 l 300 556 l 347 676 l 411 654 l 372 556 z "},"≤":{"ha":557,"x_min":53,"x_max":507,"o":"m 57 418 l 57 511 l 500 779 l 500 675 l 133 467 l 133 464 l 500 254 l 500 150 l 57 418 m 53 14 l 53 103 l 507 103 l 507 14 l 53 14 z "},"≥":{"ha":557,"x_min":54,"x_max":507,"o":"m 504 511 l 504 419 l 61 150 l 61 254 l 426 464 l 426 467 l 61 675 l 61 779 l 504 511 m 54 14 l 54 103 l 507 103 l 507 14 l 54 14 z "},"◊":{"ha":608,"x_min":56,"x_max":554,"o":"m 357 -53 l 242 -53 l 56 485 l 253 1024 l 368 1024 l 554 485 l 357 -53 m 331 793 q 318 844 324 817 q 310 892 313 871 l 306 892 l 296 844 q 285 793 292 819 l 179 489 l 281 169 q 292 119 288 146 q 299 78 296 93 l 306 78 l 308 99 q 314 124 311 111 q 319 149 317 138 q 324 167 321 160 l 431 482 l 331 793 z "},"":{"ha":517,"x_min":46,"x_max":469,"o":"m 47 785 q 65 874 47 835 q 111 940 82 913 q 178 983 140 968 q 258 997 217 997 q 338 983 300 997 q 406 940 376 968 q 452 874 435 913 q 469 785 469 835 l 469 204 q 452 115 469 154 q 406 49 435 76 q 338 6 376 21 q 258 -8 300 -8 q 178 6 217 -8 q 111 49 140 21 q 65 115 82 76 q 47 204 47 154 l 189 204 q 208 153 189 174 q 258 133 228 133 q 308 153 289 133 q 328 204 328 174 l 328 338 q 264 314 294 322 q 197 306 233 306 q 128 324 160 306 q 78 369 96 342 q 53 428 58 399 q 47 500 47 457 l 47 785 m 189 501 q 210 450 189 469 q 258 431 231 431 q 307 450 286 431 q 328 501 328 469 l 328 785 q 307 836 328 817 q 258 856 286 856 q 210 836 231 856 q 189 785 189 817 l 189 501 z "},"":{"ha":517,"x_min":47,"x_max":471,"o":"m 47 785 q 65 874 47 835 q 111 940 82 913 q 178 983 140 968 q 258 997 217 997 q 338 983 300 997 q 406 940 376 968 q 452 874 435 913 q 469 785 469 835 l 328 785 q 308 835 328 815 q 258 856 289 856 q 208 835 228 856 q 189 785 189 815 l 189 651 q 253 675 222 667 q 319 683 283 683 q 389 665 357 683 q 439 619 421 647 q 464 561 458 590 q 469 489 469 532 l 469 204 q 452 115 469 154 q 406 49 435 76 q 338 6 376 21 q 258 -8 300 -8 q 178 6 217 -8 q 111 49 140 21 q 65 115 82 76 q 47 204 47 154 l 47 785 m 189 204 q 210 153 189 172 q 258 133 231 133 q 307 153 286 133 q 328 204 328 172 l 328 488 q 307 539 328 519 q 258 558 286 558 q 210 539 231 558 q 189 488 189 519 l 189 204 z "},"ﬁ":{"ha":565,"x_min":7,"x_max":507,"o":"m 76 593 l 7 593 l 7 704 l 76 704 l 76 800 q 92 887 76 851 q 133 945 107 922 q 191 978 158 968 q 258 989 224 989 l 324 989 l 324 856 l 260 856 q 218 807 218 856 l 218 704 l 324 704 l 324 593 l 218 593 l 218 0 l 76 0 l 76 593 m 365 704 l 507 704 l 507 0 l 365 0 l 365 704 m 365 989 l 507 989 l 507 847 l 365 847 l 365 989 z "},"ﬂ":{"ha":565,"x_min":7,"x_max":576,"o":"m 76 593 l 7 593 l 7 704 l 76 704 l 76 800 q 92 887 76 851 q 133 945 107 922 q 191 978 158 968 q 258 989 224 989 l 324 989 l 324 856 l 260 856 q 218 807 218 856 l 218 704 l 324 704 l 324 593 l 218 593 l 218 0 l 76 0 l 76 593 m 365 989 l 507 989 l 507 199 q 522 144 507 158 q 576 125 536 129 l 576 -8 q 488 -1 528 -8 q 422 28 449 7 q 380 89 394 50 q 365 189 365 128 l 365 989 z "}}}
